<svg width="50" height="50" viewBox="0 0 50 50" fill="none" xmlns="http://www.w3.org/2000/svg">
<g id="business 1">
<path id="Vector" d="M32.8125 4.6875C31.7775 4.6908 30.7859 5.1034 30.054 5.83526C29.3222 6.56711 28.9095 7.55876 28.9062 8.59375C28.9062 9.67812 29.3578 10.6609 30.0781 11.3703L26.4734 17.3797C25.9918 17.2566 25.4971 17.1921 25 17.1875C23.1297 17.1875 21.4656 18.0312 20.3188 19.3422L19.5312 18.75L18.5937 20L19.4422 20.6391C18.9936 21.5041 18.7564 22.4631 18.75 23.4375C18.75 24.4375 19.0094 25.3703 19.4312 26.2109L10.5344 32.1406C9.74372 31.5641 8.79102 31.2524 7.8125 31.25C5.23438 31.25 3.125 33.3594 3.125 35.9375C3.125 38.5172 5.23438 40.625 7.8125 40.625C10.3906 40.625 12.5 38.5172 12.5 35.9375C12.5 34.9469 12.1875 34.0281 11.6562 33.2703L20.3 27.5078C21.4484 28.8312 23.1187 29.6875 25 29.6875C26.0063 29.6875 26.9453 29.4234 27.7891 28.9984L28.3969 29.8516L29.6688 28.9422L29.0828 28.1281C30.4 26.9813 31.25 25.3141 31.25 23.4375C31.25 23.4062 31.2406 23.375 31.2406 23.3438L41.1438 22.0219C41.7047 22.8703 42.6641 23.4375 43.75 23.4375C45.4672 23.4375 46.875 22.0297 46.875 20.3125C46.875 18.5953 45.4672 17.1875 43.75 17.1875C42.0328 17.1875 40.625 18.5953 40.625 20.3125C40.625 20.3813 40.6406 20.4453 40.6469 20.5141L31.0031 21.7984C30.7792 20.986 30.3931 20.2273 29.8681 19.568C29.3431 18.9088 28.6901 18.3626 27.9484 17.9625L31.3937 12.2219C31.8344 12.3969 32.3109 12.5 32.8125 12.5C34.9609 12.5 36.7188 10.7422 36.7188 8.59375C36.7188 6.44531 34.9609 4.6875 32.8125 4.6875ZM32.8125 6.25C34.1156 6.25 35.1562 7.29063 35.1562 8.59375C35.1562 9.89687 34.1156 10.9375 32.8125 10.9375C31.5094 10.9375 30.4688 9.89687 30.4688 8.59375C30.4688 7.29063 31.5094 6.25 32.8125 6.25ZM12.5 10.9375C10.7828 10.9375 9.375 12.3453 9.375 14.0625C9.375 15.7797 10.7828 17.1875 12.5 17.1875C13.1172 17.1875 13.6891 17 14.175 16.6875L14.8438 17.1875L15.7813 15.9391L15.2375 15.5297C15.4766 15.0906 15.625 14.5953 15.625 14.0625C15.625 12.3453 14.2172 10.9375 12.5 10.9375ZM12.5 12.5C13.3719 12.5 14.0625 13.1906 14.0625 14.0625C14.0625 14.9344 13.3719 15.625 12.5 15.625C11.6281 15.625 10.9375 14.9344 10.9375 14.0625C10.9375 13.1906 11.6281 12.5 12.5 12.5ZM17.0312 16.875L16.0938 18.1281L17.3438 19.0656L18.2812 17.8125L17.0312 16.875ZM25 18.75C27.5984 18.75 29.6875 20.8391 29.6875 23.4375C29.6875 26.0359 27.5984 28.125 25 28.125C22.4016 28.125 20.3125 26.0359 20.3125 23.4375C20.3125 20.8391 22.4016 18.75 25 18.75ZM43.75 18.75C44.6219 18.75 45.3125 19.4406 45.3125 20.3125C45.3125 21.1844 44.6219 21.875 43.75 21.875C42.8781 21.875 42.1875 21.1844 42.1875 20.3125C42.1875 19.4406 42.8781 18.75 43.75 18.75ZM30.5781 30.2156L29.3063 31.125L30.2125 32.3938L31.4844 31.4875L30.5781 30.2156ZM32.3938 32.7578L31.1219 33.6672L32.0312 34.9359L33.3016 34.0297L32.3938 32.7578ZM7.8125 32.8125C9.54688 32.8125 10.9375 34.2031 10.9375 35.9375C10.9375 37.6719 9.54688 39.0625 7.8125 39.0625C6.07812 39.0625 4.6875 37.6719 4.6875 35.9375C4.6875 34.2031 6.07812 32.8125 7.8125 32.8125ZM34.2109 35.3L32.9375 36.2094L33.8469 37.4813L35.1172 36.5719L34.2109 35.3ZM38.2812 37.5C37.5479 37.5019 36.8303 37.7128 36.2125 38.1078L36.025 37.8453L34.7531 38.7516L35.0703 39.1937C34.6181 39.843 34.3755 40.6151 34.375 41.4062C34.375 43.5547 36.1328 45.3125 38.2812 45.3125C40.4297 45.3125 42.1875 43.5547 42.1875 41.4062C42.1875 39.2578 40.4297 37.5 38.2812 37.5ZM38.2812 39.0625C39.5844 39.0625 40.625 40.1031 40.625 41.4062C40.625 42.7094 39.5844 43.75 38.2812 43.75C36.9781 43.75 35.9375 42.7094 35.9375 41.4062C35.9375 40.1031 36.9781 39.0625 38.2812 39.0625Z" fill="#FBAB4D"/>
</g>
</svg>
