<svg width="48" height="48" viewBox="0 0 48 48" fill="none" xmlns="http://www.w3.org/2000/svg">
<g id="week 1">
<g id="Layer 24">
<path id="Vector" d="M43.5 5.25H36.75V3C36.75 2.80109 36.671 2.61032 36.5303 2.46967C36.3897 2.32902 36.1989 2.25 36 2.25C35.8011 2.25 35.6103 2.32902 35.4697 2.46967C35.329 2.61032 35.25 2.80109 35.25 3V5.25H12.75V3C12.75 2.80109 12.671 2.61032 12.5303 2.46967C12.3897 2.32902 12.1989 2.25 12 2.25C11.8011 2.25 11.6103 2.32902 11.4697 2.46967C11.329 2.61032 11.25 2.80109 11.25 3V5.25H4.5C3.90326 5.25 3.33097 5.48705 2.90901 5.90901C2.48705 6.33097 2.25 6.90326 2.25 7.5V43.5C2.25 44.0967 2.48705 44.669 2.90901 45.091C3.33097 45.5129 3.90326 45.75 4.5 45.75H43.5C44.0967 45.75 44.669 45.5129 45.091 45.091C45.5129 44.669 45.75 44.0967 45.75 43.5V7.5C45.75 6.90326 45.5129 6.33097 45.091 5.90901C44.669 5.48705 44.0967 5.25 43.5 5.25ZM4.5 6.75H11.25V8.385C10.7496 8.56192 10.3278 8.91005 10.0593 9.36786C9.79072 9.82567 9.69265 10.3637 9.7824 10.8868C9.87216 11.4099 10.144 11.8845 10.5498 12.2266C10.9556 12.5687 11.4692 12.7563 12 12.7563C12.5308 12.7563 13.0444 12.5687 13.4502 12.2266C13.856 11.8845 14.1278 11.4099 14.2176 10.8868C14.3073 10.3637 14.2093 9.82567 13.9407 9.36786C13.6722 8.91005 13.2504 8.56192 12.75 8.385V6.75H35.25V8.385C34.7496 8.56192 34.3278 8.91005 34.0593 9.36786C33.7907 9.82567 33.6926 10.3637 33.7824 10.8868C33.8722 11.4099 34.144 11.8845 34.5498 12.2266C34.9556 12.5687 35.4692 12.7563 36 12.7563C36.5308 12.7563 37.0444 12.5687 37.4502 12.2266C37.856 11.8845 38.1278 11.4099 38.2176 10.8868C38.3074 10.3637 38.2093 9.82567 37.9407 9.36786C37.6722 8.91005 37.2504 8.56192 36.75 8.385V6.75H43.5C43.6989 6.75 43.8897 6.82902 44.0303 6.96967C44.171 7.11032 44.25 7.30109 44.25 7.5V15.75H3.75V7.5C3.75 7.30109 3.82902 7.11032 3.96967 6.96967C4.11032 6.82902 4.30109 6.75 4.5 6.75ZM43.5 44.25H4.5C4.30109 44.25 4.11032 44.171 3.96967 44.0303C3.82902 43.8897 3.75 43.6989 3.75 43.5V17.25H44.25V43.5C44.25 43.6989 44.171 43.8897 44.0303 44.0303C43.8897 44.171 43.6989 44.25 43.5 44.25Z" fill="#56CCF2"/>
<path id="Vector_2" d="M11.25 27.75H6.75C6.55109 27.75 6.36032 27.829 6.21967 27.9697C6.07902 28.1103 6 28.3011 6 28.5V33C6 33.1989 6.07902 33.3897 6.21967 33.5303C6.36032 33.671 6.55109 33.75 6.75 33.75H11.25C11.4489 33.75 11.6397 33.671 11.7803 33.5303C11.921 33.3897 12 33.1989 12 33V28.5C12 28.3011 11.921 28.1103 11.7803 27.9697C11.6397 27.829 11.4489 27.75 11.25 27.75ZM10.5 32.25H7.5V29.25H10.5V32.25ZM18.75 27.75H14.25C14.0511 27.75 13.8603 27.829 13.7197 27.9697C13.579 28.1103 13.5 28.3011 13.5 28.5V33C13.5 33.1989 13.579 33.3897 13.7197 33.5303C13.8603 33.671 14.0511 33.75 14.25 33.75H18.75C18.9489 33.75 19.1397 33.671 19.2803 33.5303C19.421 33.3897 19.5 33.1989 19.5 33V28.5C19.5 28.3011 19.421 28.1103 19.2803 27.9697C19.1397 27.829 18.9489 27.75 18.75 27.75ZM18 32.25H15V29.25H18V32.25ZM26.25 27.75H21.75C21.5511 27.75 21.3603 27.829 21.2197 27.9697C21.079 28.1103 21 28.3011 21 28.5V33C21 33.1989 21.079 33.3897 21.2197 33.5303C21.3603 33.671 21.5511 33.75 21.75 33.75H26.25C26.4489 33.75 26.6397 33.671 26.7803 33.5303C26.921 33.3897 27 33.1989 27 33V28.5C27 28.3011 26.921 28.1103 26.7803 27.9697C26.6397 27.829 26.4489 27.75 26.25 27.75ZM25.5 32.25H22.5V29.25H25.5V32.25ZM33.75 27.75H29.25C29.0511 27.75 28.8603 27.829 28.7197 27.9697C28.579 28.1103 28.5 28.3011 28.5 28.5V33C28.5 33.1989 28.579 33.3897 28.7197 33.5303C28.8603 33.671 29.0511 33.75 29.25 33.75H33.75C33.9489 33.75 34.1397 33.671 34.2803 33.5303C34.421 33.3897 34.5 33.1989 34.5 33V28.5C34.5 28.3011 34.421 28.1103 34.2803 27.9697C34.1397 27.829 33.9489 27.75 33.75 27.75ZM33 32.25H30V29.25H33V32.25ZM41.25 27.75H36.75C36.5511 27.75 36.3603 27.829 36.2197 27.9697C36.079 28.1103 36 28.3011 36 28.5V33C36 33.1989 36.079 33.3897 36.2197 33.5303C36.3603 33.671 36.5511 33.75 36.75 33.75H41.25C41.4489 33.75 41.6397 33.671 41.7803 33.5303C41.921 33.3897 42 33.1989 42 33V28.5C42 28.3011 41.921 28.1103 41.7803 27.9697C41.6397 27.829 41.4489 27.75 41.25 27.75ZM40.5 32.25H37.5V29.25H40.5V32.25Z" fill="#56CCF2"/>
</g>
</g>
</svg>
