<svg width="29" height="28" viewBox="0 0 29 28" fill="none" xmlns="http://www.w3.org/2000/svg">
<path d="M0.0921322 6.34507C0.101989 6.40038 0.109968 6.4557 0.113254 6.51148C0.155029 7.22735 0.696218 12.9391 7.50029 19.8937C7.50029 19.8937 13.3778 25.8834 19.5637 27.1427C19.5905 27.1483 19.6168 27.1543 19.6435 27.1616C20.0181 27.2635 23.2023 28.0684 24.8437 26.4223L27.1822 24.1257C27.2033 24.105 27.2253 24.0847 27.2479 24.0654C27.4812 23.8648 29.1052 22.3644 27.4807 20.769C25.8365 19.1543 23.7637 17.1855 23.529 16.9624C23.5177 16.9518 23.507 16.9412 23.4962 16.9301C23.369 16.8001 22.1608 15.6311 20.7456 16.6992C20.7048 16.7301 20.6663 16.7647 20.6297 16.8006L18.3401 19.0552C17.827 19.5415 17.0122 19.535 16.5067 19.0409L8.68453 11.3885C8.1593 10.8745 8.17291 10.0351 8.71457 9.53769L10.5451 7.85795C10.5451 7.85795 12.5508 6.03438 10.3968 4.06469L7.19942 0.924618C7.17971 0.905258 7.16093 0.885436 7.14216 0.864693C6.93563 0.636056 5.40312 -0.929371 3.60494 0.813065C3.55002 0.866076 3.49041 0.914016 3.42705 0.956424C2.81686 1.3676 -0.389917 3.66504 0.0921322 6.34507Z" fill="#9586FB"/>
</svg>
