<svg width="29" height="29" viewBox="0 0 29 29" fill="none" xmlns="http://www.w3.org/2000/svg">
<g id="Instagram">
<rect x="0.304688" y="0.366211" width="27.9116" height="27.9116" rx="13.9558" fill="url(#paint0_linear_188_1631)"/>
<path id="Vector" d="M14.2628 7.45808C16.5002 7.45808 16.7628 7.46806 17.6472 7.50795C18.465 7.54452 18.9072 7.68083 19.2031 7.79719C19.5954 7.95012 19.8746 8.12965 20.1672 8.42221C20.4598 8.71477 20.6426 8.99403 20.7922 9.38633C20.9053 9.68222 21.0449 10.1244 21.0815 10.9422C21.1214 11.8266 21.1313 12.0892 21.1313 14.3266C21.1313 16.5641 21.1214 16.8267 21.0815 17.711C21.0449 18.5289 20.9086 18.9711 20.7922 19.2669C20.6393 19.6592 20.4598 19.9385 20.1672 20.2311C19.8746 20.5236 19.5954 20.7065 19.2031 20.8561C18.9072 20.9691 18.465 21.1087 17.6472 21.1453C16.7628 21.1852 16.5002 21.1952 14.2628 21.1952C12.0253 21.1952 11.7627 21.1852 10.8784 21.1453C10.0605 21.1087 9.61835 20.9724 9.32246 20.8561C8.93016 20.7032 8.6509 20.5236 8.35834 20.2311C8.06578 19.9385 7.88292 19.6592 7.73332 19.2669C7.62028 18.9711 7.48065 18.5289 7.44408 17.711C7.40419 16.8267 7.39421 16.5641 7.39421 14.3266C7.39421 12.0892 7.40419 11.8266 7.44408 10.9422C7.48065 10.1244 7.61696 9.68222 7.73332 9.38633C7.88625 8.99403 8.06578 8.71477 8.35834 8.42221C8.6509 8.12965 8.93016 7.94679 9.32246 7.79719C9.61835 7.68415 10.0605 7.54452 10.8784 7.50795C11.7627 7.46473 12.0287 7.45808 14.2628 7.45808ZM14.2628 5.94873C11.9888 5.94873 11.7029 5.9587 10.8085 5.9986C9.91756 6.03849 9.30916 6.18145 8.77723 6.38757C8.22535 6.60035 7.75991 6.88958 7.29448 7.35502C6.82904 7.82046 6.54312 8.28922 6.32703 8.83778C6.1209 9.36971 5.97795 9.9781 5.93805 10.8724C5.89816 11.7634 5.88818 12.0493 5.88818 14.3233C5.88818 16.5973 5.89816 16.8832 5.93805 17.7775C5.97795 18.6685 6.1209 19.2769 6.32703 19.8122C6.5398 20.364 6.82904 20.8295 7.29448 21.2949C7.75991 21.7604 8.22868 22.0463 8.77723 22.2624C9.30916 22.4685 9.91756 22.6115 10.8119 22.6513C11.7062 22.6912 11.9888 22.7012 14.2661 22.7012C16.5434 22.7012 16.826 22.6912 17.7203 22.6513C18.6113 22.6115 19.2197 22.4685 19.755 22.2624C20.3068 22.0496 20.7723 21.7604 21.2377 21.2949C21.7031 20.8295 21.9891 20.3607 22.2052 19.8122C22.4113 19.2802 22.5542 18.6718 22.5941 17.7775C22.634 16.8832 22.644 16.6006 22.644 14.3233C22.644 12.046 22.634 11.7634 22.5941 10.8691C22.5542 9.9781 22.4113 9.36971 22.2052 8.83445C21.9924 8.28258 21.7031 7.81714 21.2377 7.3517C20.7723 6.88626 20.3035 6.60035 19.755 6.38425C19.223 6.17813 18.6146 6.03517 17.7203 5.99527C16.8227 5.9587 16.5368 5.94873 14.2628 5.94873Z" fill="white"/>
<path id="Vector_2" d="M14.2629 10.0244C11.8892 10.0244 9.96094 11.9493 9.96094 14.3264C9.96094 16.7035 11.8859 18.6284 14.2629 18.6284C16.64 18.6284 18.5649 16.7035 18.5649 14.3264C18.5649 11.9493 16.64 10.0244 14.2629 10.0244ZM14.2629 17.1157C12.7203 17.1157 11.4703 15.8657 11.4703 14.3231C11.4703 12.7805 12.7203 11.5304 14.2629 11.5304C15.8055 11.5304 17.0556 12.7805 17.0556 14.3231C17.0556 15.8657 15.8055 17.1157 14.2629 17.1157Z" fill="white"/>
<path id="Vector_3" d="M18.7345 10.8557C19.289 10.8557 19.7385 10.4062 19.7385 9.85168C19.7385 9.29717 19.289 8.84766 18.7345 8.84766C18.18 8.84766 17.7305 9.29717 17.7305 9.85168C17.7305 10.4062 18.18 10.8557 18.7345 10.8557Z" fill="white"/>
</g>
<defs>
<linearGradient id="paint0_linear_188_1631" x1="14.2605" y1="0.366211" x2="14.2605" y2="28.2778" gradientUnits="userSpaceOnUse">
<stop stop-color="#F9D801"/>
<stop offset="0.484375" stop-color="#EE0B1F"/>
<stop offset="1" stop-color="#7A39AD"/>
</linearGradient>
</defs>
</svg>
