<svg width="42" height="42" viewBox="0 0 42 42" fill="none" xmlns="http://www.w3.org/2000/svg">
<g id="projects 1">
<path id="Vector" d="M40.0312 1.3125H37.4062C37.2322 1.3125 37.0653 1.38164 36.9422 1.50471C36.8191 1.62778 36.75 1.7947 36.75 1.96875V3.98672L35.4624 3.9375C35.3742 3.93372 35.286 3.94807 35.2035 3.97967C35.121 4.01128 35.0459 4.05946 34.9827 4.12125C34.9191 4.18241 34.8685 4.25578 34.8338 4.33697C34.7992 4.41816 34.7813 4.50549 34.7812 4.59375V9.84375H36.0938V5.27559L36.75 5.30053V16.4062C36.7535 16.4299 36.7583 16.4534 36.7644 16.4765C36.7631 16.4959 36.7631 16.5154 36.7644 16.5349L38.0769 23.0974C38.1071 23.2457 38.1875 23.3791 38.3048 23.4749C38.422 23.5707 38.5687 23.623 38.7201 23.623C38.8714 23.623 39.0182 23.5707 39.1354 23.4749C39.2526 23.3791 39.3331 23.2457 39.3632 23.0974L40.6757 16.5349C40.677 16.5154 40.677 16.4959 40.6757 16.4765C40.6809 16.4533 40.6849 16.4299 40.6875 16.4062V1.96875C40.6875 1.7947 40.6184 1.62778 40.4953 1.50471C40.3722 1.38164 40.2053 1.3125 40.0312 1.3125ZM38.0625 5.25H39.375V15.75H38.0625V5.25ZM38.0625 2.625H39.375V3.9375H38.0625V2.625ZM38.7188 19.6219L38.2069 17.0625H39.2306L38.7188 19.6219ZM18.375 7.875H26.25V9.1875H18.375V7.875ZM15.0938 13.125H26.9062V14.4375H15.0938V13.125ZM15.0938 19.6875H26.9062V21H15.0938V19.6875Z" fill="#56CCF2"/>
<path id="Vector_2" d="M1.32366 37.5226C1.28865 37.9247 1.33759 38.3296 1.46736 38.7118C1.59713 39.0939 1.80491 39.445 2.07752 39.7426C2.35013 40.0401 2.68161 40.2778 3.05094 40.4406C3.42028 40.6033 3.81939 40.6874 4.22298 40.6877C4.30763 40.6877 4.39229 40.6845 4.4776 40.6766C4.90112 40.6402 5.31149 40.5113 5.67977 40.299C6.04806 40.0868 6.36529 39.7963 6.6091 39.4481L9.98551 34.6358C11.2176 35.3094 12.6337 35.5688 14.0245 35.3755C15.4153 35.1823 16.7071 34.5468 17.7089 33.5628C18.6496 33.9327 19.6512 34.1234 20.662 34.1252H28.7109C29.9252 34.1372 31.0973 33.6806 31.9834 32.8505C32.8696 32.0203 33.4016 30.8804 33.4688 29.668C33.4938 28.7787 33.2604 27.9012 32.797 27.1418C32.3335 26.3824 31.6599 25.7736 30.8575 25.3892C30.454 25.1861 30.1156 24.8737 29.8811 24.4875C29.6466 24.1013 29.5254 23.657 29.5313 23.2052V9.50273C29.5278 7.33167 28.6638 5.25053 27.1286 3.71536C25.5935 2.18019 23.5123 1.3162 21.3413 1.31273H13.2891C12.0748 1.30074 10.9027 1.75732 10.0166 2.58751C9.13041 3.41769 8.59841 4.55755 8.53126 5.76998C8.50636 6.65934 8.73974 7.53687 9.20317 8.29636C9.66659 9.05585 10.3402 9.66475 11.1425 10.0494C11.5461 10.2523 11.8845 10.5646 12.119 10.9507C12.3536 11.3368 12.4748 11.781 12.4688 12.2327V22.3462C11.3915 22.4539 10.3576 22.8266 9.45944 23.431C8.56124 24.0355 7.82665 24.8529 7.32121 25.8103C6.81576 26.7677 6.55519 27.8353 6.56273 28.9179C6.57027 30.0006 6.84571 31.0645 7.36444 32.0147L2.55216 35.3911C2.20396 35.6349 1.91348 35.9522 1.70121 36.3205C1.48895 36.6888 1.36007 37.0991 1.32366 37.5226ZM11.7088 8.86486C11.1357 8.59023 10.6544 8.15531 10.3234 7.61276C9.99239 7.07022 9.82578 6.44334 9.84376 5.80804C9.89834 4.93618 10.2869 4.11891 10.9285 3.52613C11.5702 2.93335 12.4156 2.61069 13.2891 2.62523H21.3413C23.1647 2.62714 24.9129 3.35235 26.2023 4.64171C27.4916 5.93108 28.2168 7.67929 28.2188 9.50273V23.2052C28.2137 23.9044 28.4053 24.591 28.7718 25.1865C29.1382 25.782 29.6647 26.2625 30.2912 26.5731C30.8644 26.8477 31.3456 27.2827 31.6766 27.8252C32.0076 28.3677 32.1742 28.9946 32.1563 29.6299C32.1017 30.5018 31.7132 31.3191 31.0715 31.9118C30.4298 32.5046 29.5844 32.8273 28.7109 32.8127H20.6588C19.9586 32.812 19.2628 32.7038 18.5955 32.4918C19.0724 31.774 19.4028 30.969 19.5677 30.1231C19.7325 29.2772 19.7287 28.4071 19.5563 27.5627H26.9063V26.2502H19.1356C18.6687 25.1837 17.927 24.2603 16.9862 23.5744C16.0455 22.8884 14.9395 22.4646 13.7813 22.3462V12.2327C13.7863 11.5335 13.5947 10.847 13.2283 10.2514C12.8618 9.65592 12.3353 9.17544 11.7088 8.86486ZM13.125 23.6252C14.1634 23.6252 15.1784 23.9331 16.0417 24.51C16.9051 25.0869 17.578 25.9068 17.9754 26.8661C18.3727 27.8255 18.4767 28.8811 18.2741 29.8995C18.0716 30.9179 17.5715 31.8533 16.8373 32.5875C16.1031 33.3218 15.1676 33.8218 14.1492 34.0244C13.1308 34.2269 12.0752 34.123 11.1159 33.7256C10.1566 33.3282 9.33667 32.6553 8.75979 31.792C8.18291 30.9286 7.87501 29.9136 7.87501 28.8752C7.87657 27.4833 8.4302 26.1489 9.41442 25.1646C10.3987 24.1804 11.7331 23.6268 13.125 23.6252ZM3.30619 36.4654L8.10798 33.0969C8.34998 33.3842 8.61607 33.6503 8.90335 33.8923L5.53482 38.694C5.39994 38.8835 5.22538 39.0413 5.02328 39.1565C4.82119 39.2716 4.59642 39.3413 4.36464 39.3606C4.13287 39.38 3.89965 39.3486 3.68125 39.2686C3.46284 39.1887 3.2645 39.062 3.10004 38.8976C2.93557 38.7331 2.80894 38.5348 2.72897 38.3164C2.649 38.098 2.61761 37.8647 2.63699 37.633C2.65636 37.4012 2.72604 37.1764 2.84116 36.9743C2.95628 36.7722 3.11408 36.5977 3.30357 36.4628L3.30619 36.4654Z" fill="#56CCF2"/>
<path id="Vector_3" d="M13.125 32.1563C13.774 32.1563 14.4084 31.9638 14.948 31.6033C15.4876 31.2427 15.9081 30.7303 16.1565 30.1307C16.4048 29.5311 16.4698 28.8714 16.3432 28.2349C16.2166 27.5984 15.9041 27.0137 15.4452 26.5548C14.9863 26.0959 14.4016 25.7834 13.7651 25.6568C13.1286 25.5302 12.4689 25.5952 11.8693 25.8435C11.2697 26.0919 10.7573 26.5124 10.3967 27.052C10.0362 27.5916 9.84375 28.226 9.84375 28.875C9.84479 29.7449 10.1908 30.5789 10.806 31.194C11.4211 31.8092 12.2551 32.1552 13.125 32.1563ZM13.125 26.9063C13.5144 26.9063 13.895 27.0217 14.2188 27.238C14.5425 27.4544 14.7949 27.7619 14.9439 28.1216C15.0929 28.4813 15.1319 28.8772 15.0559 29.2591C14.98 29.641 14.7925 29.9918 14.5171 30.2671C14.2418 30.5425 13.891 30.73 13.5091 30.8059C13.1272 30.8819 12.7313 30.8429 12.3716 30.6939C12.0118 30.5449 11.7044 30.2925 11.488 29.9688C11.2717 29.645 11.1562 29.2644 11.1562 28.875C11.1562 28.3529 11.3637 27.8521 11.7329 27.4829C12.1021 27.1137 12.6029 26.9063 13.125 26.9063Z" fill="#56CCF2"/>
</g>
</svg>
