<svg width="38" height="38" viewBox="0 0 38 38" fill="none" xmlns="http://www.w3.org/2000/svg">
<g id="project-strategy 1" clip-path="url(#clip0_314_105774)">
<path id="Vector" d="M34.8333 0H3.16667C2.32712 0.00100564 1.52225 0.334959 0.928606 0.928606C0.334959 1.52225 0.00100564 2.32712 0 3.16667L0 24.7C0.00100564 25.5395 0.334959 26.3444 0.928606 26.9381C1.52225 27.5317 2.32712 27.8657 3.16667 27.8667H10.1333V28.5C10.1347 28.9597 10.3031 29.4032 10.607 29.748C10.911 30.0929 11.3298 30.3156 11.7857 30.3747L9.64757 35.347C9.52292 35.6357 9.4719 35.9509 9.49908 36.2642C9.52626 36.5775 9.63079 36.8792 9.8033 37.1422C9.97581 37.4051 10.2109 37.6212 10.4875 37.7709C10.764 37.9206 11.0735 37.9993 11.388 38C11.7596 38.0003 12.1231 37.8916 12.4336 37.6874C12.744 37.4832 12.9878 37.1925 13.1347 36.8511L15.9087 30.4H17.1V36.1C17.1 36.6039 17.3002 37.0872 17.6565 37.4435C18.0128 37.7998 18.4961 38 19 38C19.5039 38 19.9872 37.7998 20.3435 37.4435C20.6998 37.0872 20.9 36.6039 20.9 36.1V30.4H22.0786L24.852 36.8486C24.9442 37.0868 25.0834 37.3039 25.2613 37.487C25.4393 37.6702 25.6523 37.8156 25.8878 37.9145C26.1232 38.0135 26.3761 38.0639 26.6315 38.0629C26.8869 38.0619 27.1394 38.0094 27.374 37.9086C27.6086 37.8078 27.8205 37.6608 27.9971 37.4762C28.1736 37.2917 28.311 37.0734 28.4013 36.8345C28.4916 36.5957 28.5328 36.341 28.5224 36.0859C28.512 35.8307 28.4504 35.5803 28.341 35.3495L26.2023 30.3759C26.6606 30.3196 27.0826 30.098 27.389 29.7526C27.6955 29.4071 27.8653 28.9618 27.8667 28.5V27.8667H34.8333C35.6729 27.8657 36.4777 27.5317 37.0714 26.9381C37.665 26.3444 37.999 25.5395 38 24.7V3.16667C37.999 2.32712 37.665 1.52225 37.0714 0.928606C36.4777 0.334959 35.6729 0.00100564 34.8333 0ZM11.97 36.3533C11.9197 36.4675 11.8369 36.5644 11.7318 36.6316C11.6267 36.6989 11.5041 36.7336 11.3793 36.7315C11.2546 36.7293 11.1332 36.6903 11.0306 36.6195C10.9279 36.5486 10.8484 36.4489 10.8021 36.3331C10.7713 36.2562 10.7562 36.174 10.7576 36.0913C10.759 36.0085 10.777 35.9268 10.8104 35.8511L13.1537 30.4044H14.5293L11.97 36.3533ZM19.6333 36.1C19.6333 36.268 19.5666 36.4291 19.4478 36.5478C19.3291 36.6666 19.168 36.7333 19 36.7333C18.832 36.7333 18.6709 36.6666 18.5522 36.5478C18.4334 36.4291 18.3667 36.268 18.3667 36.1V30.4H19.6333V36.1ZM27.1858 36.3318C27.1396 36.448 27.0599 36.5479 26.957 36.6188C26.8541 36.6898 26.7324 36.7288 26.6074 36.7307C26.4824 36.7327 26.3595 36.6976 26.2544 36.6299C26.1493 36.5622 26.0666 36.4648 26.0167 36.3502L23.458 30.4H24.8336L27.177 35.8524C27.2102 35.9277 27.2281 36.0089 27.2296 36.0912C27.2311 36.1735 27.2163 36.2553 27.1858 36.3318ZM26.6 28.5C26.6 28.668 26.5333 28.8291 26.4145 28.9478C26.2957 29.0666 26.1346 29.1333 25.9667 29.1333H12.0333C11.8654 29.1333 11.7043 29.0666 11.5855 28.9478C11.4667 28.8291 11.4 28.668 11.4 28.5V27.8667H26.6V28.5ZM36.7333 24.7C36.7333 25.2039 36.5332 25.6872 36.1768 26.0435C35.8205 26.3998 35.3372 26.6 34.8333 26.6H3.16667C2.66276 26.6 2.17948 26.3998 1.82316 26.0435C1.46684 25.6872 1.26667 25.2039 1.26667 24.7V3.16667C1.26667 2.66276 1.46684 2.17948 1.82316 1.82316C2.17948 1.46684 2.66276 1.26667 3.16667 1.26667H34.8333C35.3372 1.26667 35.8205 1.46684 36.1768 1.82316C36.5332 2.17948 36.7333 2.66276 36.7333 3.16667V24.7Z" fill="#56CCF2"/>
<path id="Vector_2" d="M10.7666 12.668H4.43329C4.09735 12.668 3.77517 12.8014 3.53762 13.039C3.30008 13.2765 3.16663 13.5987 3.16663 13.9346V22.8013C3.16663 23.1372 3.30008 23.4594 3.53762 23.697C3.77517 23.9345 4.09735 24.068 4.43329 24.068H7.59996C7.76792 24.0679 7.92898 24.0012 8.04773 23.8824L11.8477 20.0824C11.9665 19.9637 12.0333 19.8026 12.0333 19.6346V13.9346C12.0333 13.5987 11.8998 13.2765 11.6623 13.039C11.4247 12.8014 11.1026 12.668 10.7666 12.668ZM4.43329 13.9346H10.7666V19.0013H8.23329C7.89735 19.0013 7.57517 19.1348 7.33762 19.3723C7.10008 19.6098 6.96663 19.932 6.96663 20.268V22.8013H4.43329V13.9346ZM9.87109 20.268L8.23329 21.9058V20.268H9.87109ZM32.1144 8.4202C31.9956 8.30147 31.8346 8.23477 31.6666 8.23477C31.4987 8.23477 31.3376 8.30147 31.2189 8.4202L28.6855 10.9535C28.5702 11.073 28.5063 11.233 28.5078 11.399C28.5092 11.5651 28.5758 11.7239 28.6932 11.8414C28.8107 11.9588 28.9695 12.0254 29.1356 12.0268C29.3016 12.0283 29.4616 11.9644 29.5811 11.8491L31.0333 10.3968V13.9346C31.0333 14.4385 30.8331 14.9218 30.4768 15.2781C30.1205 15.6345 29.6372 15.8346 29.1333 15.8346H24.0666C23.2271 15.8356 22.4222 16.1696 21.8286 16.7632C21.2349 17.3569 20.901 18.1618 20.9 19.0013V19.6346C20.9 20.1385 20.6998 20.6218 20.3435 20.9781C19.9871 21.3345 19.5039 21.5346 19 21.5346H13.9333C13.7653 21.5346 13.6042 21.6014 13.4855 21.7201C13.3667 21.8389 13.3 22 13.3 22.168C13.3 22.3359 13.3667 22.497 13.4855 22.6158C13.6042 22.7346 13.7653 22.8013 13.9333 22.8013H19C19.8395 22.8003 20.6444 22.4663 21.238 21.8727C21.8317 21.279 22.1656 20.4742 22.1666 19.6346V19.0013C22.1666 18.4974 22.3668 18.0141 22.7231 17.6578C23.0794 17.3015 23.5627 17.1013 24.0666 17.1013H29.1333C29.9728 17.1003 30.7777 16.7663 31.3714 16.1727C31.965 15.5791 32.299 14.7742 32.3 13.9346V10.3968L33.7522 11.8491C33.8716 11.9644 34.0316 12.0283 34.1977 12.0268C34.3637 12.0254 34.5226 11.9588 34.64 11.8414C34.7574 11.7239 34.824 11.5651 34.8255 11.399C34.8269 11.233 34.7631 11.073 34.6477 10.9535L32.1144 8.4202ZM31.6666 6.96797C32.0424 6.96797 32.4098 6.85654 32.7222 6.64776C33.0347 6.43899 33.2782 6.14225 33.422 5.79507C33.5658 5.44789 33.6034 5.06586 33.5301 4.6973C33.4568 4.32873 33.2758 3.99019 33.0101 3.72447C32.7444 3.45875 32.4059 3.27779 32.0373 3.20448C31.6687 3.13117 31.2867 3.16879 30.9395 3.3126C30.5923 3.4564 30.2956 3.69993 30.0868 4.01239C29.8781 4.32484 29.7666 4.69218 29.7666 5.06797C29.7666 5.57188 29.9668 6.05515 30.3231 6.41147C30.6794 6.76779 31.1627 6.96797 31.6666 6.96797ZM31.6666 4.43464C31.7919 4.43464 31.9143 4.47178 32.0185 4.54137C32.1226 4.61096 32.2038 4.70988 32.2517 4.8256C32.2997 4.94133 32.3122 5.06867 32.2878 5.19153C32.2634 5.31438 32.203 5.42723 32.1145 5.5158C32.0259 5.60438 31.913 5.6647 31.7902 5.68913C31.6673 5.71357 31.54 5.70103 31.4243 5.65309C31.3085 5.60516 31.2096 5.52398 31.14 5.41983C31.0704 5.31568 31.0333 5.19323 31.0333 5.06797C31.0333 4.9 31.1 4.73891 31.2188 4.62014C31.3376 4.50136 31.4987 4.43464 31.6666 4.43464ZM34.6477 17.9202C34.529 17.8015 34.3679 17.7348 34.2 17.7348C34.032 17.7348 33.871 17.8015 33.7522 17.9202L32.9333 18.7391L32.1144 17.9202C31.9949 17.8048 31.835 17.741 31.6689 17.7424C31.5028 17.7439 31.344 17.8105 31.2266 17.9279C31.1091 18.0453 31.0425 18.2042 31.0411 18.3702C31.0397 18.5363 31.1035 18.6963 31.2189 18.8157L32.0378 19.6346L31.2189 20.4535C31.1584 20.512 31.1101 20.5818 31.0769 20.6591C31.0437 20.7364 31.0263 20.8195 31.0255 20.9036C31.0248 20.9877 31.0408 21.0711 31.0727 21.1489C31.1045 21.2267 31.1515 21.2975 31.211 21.3569C31.2705 21.4164 31.3412 21.4634 31.419 21.4953C31.4969 21.5271 31.5803 21.5431 31.6643 21.5424C31.7484 21.5417 31.8315 21.5242 31.9088 21.491C31.9861 21.4578 32.056 21.4096 32.1144 21.3491L32.9333 20.5302L33.7522 21.3491C33.8716 21.4644 34.0316 21.5283 34.1977 21.5268C34.3637 21.5254 34.5226 21.4588 34.64 21.3414C34.7574 21.2239 34.824 21.0651 34.8255 20.899C34.8269 20.733 34.7631 20.573 34.6477 20.4535L33.8288 19.6346L34.6477 18.8157C34.7665 18.697 34.8332 18.5359 34.8332 18.368C34.8332 18.2 34.7665 18.039 34.6477 17.9202Z" fill="#56CCF2"/>
<path id="Vector_3" d="M28.9477 19.8176C28.829 19.6989 28.6679 19.6322 28.5 19.6322C28.332 19.6322 28.171 19.6989 28.0522 19.8176L27.2333 20.6365L26.4144 19.8176C26.295 19.7023 26.135 19.6384 25.9689 19.6399C25.8029 19.6413 25.644 19.7079 25.5266 19.8253C25.4092 19.9428 25.3426 20.1016 25.3411 20.2677C25.3397 20.4337 25.4035 20.5937 25.5189 20.7132L26.3378 21.5321L25.5189 22.351C25.4584 22.4094 25.4101 22.4793 25.3769 22.5565C25.3437 22.6338 25.3263 22.7169 25.3255 22.801C25.3248 22.8851 25.3408 22.9685 25.3727 23.0463C25.4045 23.1242 25.4516 23.1949 25.511 23.2543C25.5705 23.3138 25.6412 23.3608 25.719 23.3927C25.7969 23.4245 25.8803 23.4405 25.9644 23.4398C26.0485 23.4391 26.1316 23.4216 26.2088 23.3884C26.2861 23.3552 26.356 23.307 26.4144 23.2465L27.2333 22.4276L28.0522 23.2465C28.1717 23.3619 28.3316 23.4257 28.4977 23.4243C28.6637 23.4228 28.8226 23.3562 28.94 23.2388C29.0574 23.1214 29.1241 22.9625 29.1255 22.7964C29.1269 22.6304 29.0631 22.4704 28.9477 22.351L28.1288 21.5321L28.9477 20.7132C29.0665 20.5944 29.1332 20.4333 29.1332 20.2654C29.1332 20.0975 29.0665 19.9364 28.9477 19.8176ZM14.7522 15.6465C14.871 15.7652 15.032 15.8319 15.2 15.8319C15.3679 15.8319 15.529 15.7652 15.6477 15.6465L16.4666 14.8276L17.2855 15.6465C17.405 15.7619 17.565 15.8257 17.731 15.8243C17.8971 15.8228 18.0559 15.7562 18.1734 15.6388C18.2908 15.5214 18.3574 15.3625 18.3588 15.1964C18.3603 15.0304 18.2964 14.8704 18.1811 14.751L17.3622 13.9321L18.1811 13.1132C18.2964 12.9937 18.3603 12.8337 18.3588 12.6677C18.3574 12.5016 18.2908 12.3428 18.1734 12.2253C18.0559 12.1079 17.8971 12.0413 17.731 12.0399C17.565 12.0384 17.405 12.1023 17.2855 12.2176L16.4666 13.0365L15.6477 12.2176C15.5283 12.1023 15.3683 12.0384 15.2022 12.0399C15.0362 12.0413 14.8773 12.1079 14.7599 12.2253C14.6425 12.3428 14.5759 12.5016 14.5744 12.6677C14.573 12.8337 14.6368 12.9937 14.7522 13.1132L15.5711 13.9321L14.7522 14.751C14.6335 14.8697 14.5668 15.0308 14.5668 15.1987C14.5668 15.3667 14.6335 15.5277 14.7522 15.6465ZM22.3522 9.94649C22.471 10.0652 22.632 10.1319 22.8 10.1319C22.9679 10.1319 23.129 10.0652 23.2477 9.94649L24.0666 9.12759L24.8855 9.94649C25.005 10.0619 25.165 10.1257 25.331 10.1243C25.4971 10.1228 25.6559 10.0562 25.7734 9.93878C25.8908 9.82135 25.9574 9.66251 25.9588 9.49645C25.9603 9.33039 25.8964 9.17041 25.7811 9.05096L24.9622 8.23206L25.7811 7.41316C25.8964 7.29371 25.9603 7.13373 25.9588 6.96767C25.9574 6.80162 25.8908 6.64277 25.7734 6.52534C25.6559 6.40792 25.4971 6.34131 25.331 6.33987C25.165 6.33842 25.005 6.40226 24.8855 6.51763L24.0666 7.33653L23.2477 6.51763C23.1283 6.40226 22.9683 6.33842 22.8022 6.33987C22.6362 6.34131 22.4773 6.40792 22.3599 6.52534C22.2425 6.64277 22.1759 6.80162 22.1744 6.96767C22.173 7.13373 22.2368 7.29371 22.3522 7.41316L23.1711 8.23206L22.3522 9.05096C22.2335 9.16973 22.1668 9.33079 22.1668 9.49873C22.1668 9.66666 22.2335 9.82773 22.3522 9.94649Z" fill="#56CCF2"/>
</g>
<defs>
<clipPath id="clip0_314_105774">
<rect width="38" height="38" fill="white"/>
</clipPath>
</defs>
</svg>
