<svg width="36" height="36" viewBox="0 0 36 36" fill="none" xmlns="http://www.w3.org/2000/svg">
<g id="trust 1" clip-path="url(#clip0_314_105608)">
<g id="Layer 2">
<path id="Vector" d="M16.1395 35.9393H2.51843C2.33211 35.9393 2.15343 35.8653 2.02168 35.7336C1.88993 35.6018 1.81592 35.4231 1.81592 35.2368V31.5345C1.81592 31.3482 1.88993 31.1695 2.02168 31.0378C2.15343 30.906 2.33211 30.832 2.51843 30.832H16.1395C16.3258 30.832 16.5045 30.906 16.6363 31.0378C16.768 31.1695 16.842 31.3482 16.842 31.5345V35.2368C16.842 35.4231 16.768 35.6018 16.6363 35.7336C16.5045 35.8653 16.3258 35.9393 16.1395 35.9393ZM3.22095 34.5343H15.437V32.2371H3.22095V34.5343Z" fill="#FBAB4D"/>
<path id="Vector_2" d="M4.33452 32.2359C4.1482 32.2359 3.96952 32.1618 3.83777 32.0301C3.70602 31.8984 3.63201 31.7197 3.63201 31.5333V29.7665C3.637 27.6898 3.04518 25.6554 1.927 23.9054C1.29976 22.925 0.816423 21.8597 0.491761 20.742C0.165256 19.6192 -0.000314006 18.4557 4.47066e-07 17.2863V6.81885C4.47066e-07 5.38923 1.12965 4.22656 2.51852 4.22656C2.85386 4.22688 3.18561 4.29557 3.4935 4.42844C3.80139 4.5613 4.07896 4.75556 4.30923 4.99933C4.77997 5.49047 5.04101 6.14558 5.03704 6.82587V17.4008C5.03704 17.5872 4.96302 17.7658 4.83128 17.8976C4.69953 18.0293 4.52084 18.1034 4.33452 18.1034C4.1482 18.1034 3.96952 18.0293 3.83777 17.8976C3.70602 17.7658 3.63201 17.5872 3.63201 17.4008V6.81955C3.63446 6.5036 3.51405 6.19906 3.2962 5.97021C3.19631 5.86403 3.07584 5.77931 2.94214 5.72121C2.80844 5.66311 2.6643 5.63286 2.51852 5.6323C1.90452 5.6323 1.40503 6.1648 1.40503 6.81955V17.287C1.405 18.3237 1.55164 19.3551 1.84059 20.3507C2.12795 21.3386 2.55545 22.2802 3.11004 23.1467C4.37323 25.1232 5.04209 27.4209 5.03704 29.7665V31.5333C5.03704 31.7197 4.96302 31.8984 4.83128 32.0301C4.69953 32.1618 4.52084 32.2359 4.33452 32.2359Z" fill="#FBAB4D"/>
<path id="Vector_3" d="M14.9045 32.2389C14.7182 32.2389 14.5395 32.1649 14.4077 32.0332C14.276 31.9014 14.202 31.7227 14.202 31.5364V26.4291C14.2054 25.5852 13.9063 24.768 13.359 24.1256L13.347 24.1122L7.21124 16.6016L7.2 16.5876C7.06207 16.401 6.87434 16.2571 6.65836 16.1724C6.44296 16.094 6.20922 16.0807 5.98633 16.1343C5.76344 16.1879 5.56128 16.306 5.40508 16.4738C5.16785 16.7254 5.03573 17.0581 5.03573 17.4039C5.03573 17.7497 5.16785 18.0824 5.40508 18.334C5.41911 18.3479 5.43225 18.3627 5.44442 18.3783L10.3269 24.4045C10.4447 24.549 10.5002 24.7343 10.4813 24.9197C10.4624 25.1052 10.3706 25.2755 10.2261 25.3933C10.0816 25.511 9.89625 25.5665 9.71082 25.5476C9.52538 25.5287 9.35505 25.4369 9.2373 25.2924L4.37027 19.2845C3.89415 18.7681 3.63162 18.0904 3.63567 17.388C3.63971 16.6856 3.91002 16.0109 4.39205 15.5001C4.73786 15.1377 5.18143 14.8836 5.66891 14.7684C6.1564 14.6533 6.66681 14.6822 7.13818 14.8517C7.60038 15.0258 8.00443 15.3261 8.30436 15.7186L14.4289 23.2165C15.192 24.1127 15.6098 25.252 15.607 26.4291V31.5364C15.607 31.7227 15.533 31.9014 15.4012 32.0332C15.2695 32.1649 15.0908 32.2389 14.9045 32.2389ZM33.4502 35.9412H19.8291C19.6428 35.9412 19.4641 35.8672 19.3324 35.7354C19.2006 35.6037 19.1266 35.425 19.1266 35.2387V31.5364C19.1266 31.3501 19.2006 31.1714 19.3324 31.0396C19.4641 30.9079 19.6428 30.8339 19.8291 30.8339H33.4502C33.6365 30.8339 33.8152 30.9079 33.947 31.0396C34.0787 31.1714 34.1527 31.3501 34.1527 31.5364V35.2387C34.1527 35.425 34.0787 35.6037 33.947 35.7354C33.8152 35.8672 33.6365 35.9412 33.4502 35.9412ZM20.5316 34.5361H32.7477V32.2389H20.5316V34.5361Z" fill="#FBAB4D"/>
<path id="Vector_4" d="M31.6343 32.2387C31.448 32.2387 31.2693 32.1647 31.1376 32.0329C31.0058 31.9012 30.9318 31.7225 30.9318 31.5362V29.7693C30.9266 27.4239 31.5955 25.1264 32.8588 23.1502C33.4135 22.283 33.8409 21.3407 34.1282 20.3521C34.4172 19.3568 34.5639 18.3256 34.5638 17.2891V6.82166C34.5638 6.16691 34.0643 5.6344 33.4503 5.6344C33.3045 5.63506 33.1603 5.66542 33.0266 5.72364C32.8929 5.78186 32.7725 5.86671 32.6726 5.97302C32.4545 6.20171 32.3341 6.50635 32.3368 6.82236V17.4036C32.3368 17.59 32.2628 17.7687 32.1311 17.9004C31.9993 18.0321 31.8206 18.1062 31.6343 18.1062C31.448 18.1062 31.2693 18.0321 31.1376 17.9004C31.0058 17.7687 30.9318 17.59 30.9318 17.4036V6.82236C30.9287 6.14328 31.1897 5.48959 31.6596 4.99933C31.8899 4.75556 32.1674 4.5613 32.4753 4.42844C32.7832 4.29557 33.115 4.22688 33.4503 4.22656C34.8392 4.22656 35.9688 5.38923 35.9688 6.81885V17.2863C35.9688 18.4557 35.8033 19.6191 35.4771 20.742C35.1522 21.859 34.6689 22.9236 34.0418 23.9033C32.9237 25.6533 32.3318 27.6877 32.3368 29.7644V31.5312C32.3375 31.6239 32.3198 31.7158 32.2848 31.8016C32.2498 31.8874 32.1981 31.9654 32.1328 32.0312C32.0675 32.0969 31.9898 32.1491 31.9043 32.1847C31.8187 32.2203 31.727 32.2387 31.6343 32.2387Z" fill="#FBAB4D"/>
<path id="Vector_5" d="M21.0642 32.237C20.8779 32.237 20.6992 32.163 20.5675 32.0313C20.4357 31.8995 20.3617 31.7208 20.3617 31.5345V26.4272C20.3585 25.2501 20.7764 24.1106 21.5398 23.2146L27.6644 15.7167C27.9643 15.3243 28.3683 15.0239 28.8305 14.8498C29.3018 14.6803 29.8121 14.6514 30.2995 14.7665C30.7869 14.8816 31.2303 15.1358 31.576 15.4982C32.0582 16.0089 32.3288 16.6836 32.333 17.386C32.3371 18.0884 32.0746 18.7663 31.5984 19.2826L26.7314 25.2906C26.6137 25.4351 26.4433 25.5268 26.2579 25.5458C26.0725 25.5647 25.8871 25.5091 25.7426 25.3914C25.5981 25.2736 25.5063 25.1033 25.4874 24.9179C25.4685 24.7324 25.5241 24.5471 25.6418 24.4026L30.5264 18.3764C30.5386 18.3608 30.5517 18.3461 30.5657 18.3321C30.803 18.0805 30.9351 17.7478 30.9351 17.402C30.9351 17.0562 30.803 16.7235 30.5657 16.4719C30.4095 16.3041 30.2074 16.186 29.9845 16.1324C29.7616 16.0788 29.5279 16.0921 29.3125 16.1705C29.0965 16.2552 28.9088 16.3991 28.7708 16.5857L28.7596 16.5997L22.621 24.1103L22.6097 24.1237C22.0624 24.7661 21.7634 25.5833 21.7667 26.4272V31.5345C21.7667 31.7208 21.6927 31.8995 21.561 32.0313C21.4292 32.163 21.2505 32.237 21.0642 32.237ZM17.9844 21.8433C17.906 21.8434 17.8281 21.8303 17.754 21.8047C15.2484 20.9329 13.0761 19.3033 11.5381 17.1418C10 14.9803 9.17243 12.3939 9.16992 9.74108V3.52171C9.16992 3.33539 9.24394 3.1567 9.37568 3.02496C9.50743 2.89321 9.68612 2.8192 9.87244 2.8192C10.4339 2.81882 10.9723 2.59577 11.3695 2.19895C11.7667 1.80214 11.9903 1.26397 11.9912 0.702516C11.9912 0.516197 12.0652 0.337509 12.197 0.205762C12.3287 0.0740148 12.5074 0 12.6937 0L23.2743 0C23.4606 0 23.6393 0.0740148 23.7711 0.205762C23.9028 0.337509 23.9768 0.516197 23.9768 0.702516C23.978 1.26404 24.2017 1.8022 24.599 2.19899C24.9964 2.59579 25.5348 2.81882 26.0963 2.8192C26.2827 2.8192 26.4613 2.89321 26.5931 3.02496C26.7248 3.1567 26.7989 3.33539 26.7989 3.52171V9.74108C26.7963 12.3939 25.9687 14.9803 24.4307 17.1418C22.8926 19.3033 20.7203 20.9329 18.2148 21.8047C18.1407 21.8303 18.0628 21.8434 17.9844 21.8433ZM10.575 4.15398V9.74108C10.5773 12.0603 11.2882 14.3234 12.6124 16.2274C13.9366 18.1314 15.811 19.5854 17.9844 20.3947C20.1578 19.5854 22.0321 18.1314 23.3563 16.2274C24.6805 14.3234 25.3914 12.0603 25.3938 9.74108V4.15398C24.7166 4.01517 24.095 3.68074 23.606 3.19211C23.117 2.70348 22.7821 2.08213 22.6428 1.40503H13.326C13.1867 2.08213 12.8518 2.70348 12.3628 3.19211C11.8738 3.68074 11.2522 4.01517 10.575 4.15398Z" fill="#FBAB4D"/>
<path id="Vector_6" d="M17.9844 14.7968C16.8002 14.796 15.6429 14.4441 14.6587 13.7856C13.6744 13.127 12.9076 12.1915 12.455 11.0972C12.0024 10.003 11.8844 8.79905 12.1159 7.63773C12.3475 6.4764 12.9181 5.40979 13.7558 4.57274C14.5934 3.73569 15.6604 3.16579 16.8219 2.93507C17.9834 2.70435 19.1872 2.82319 20.2812 3.27655C21.3751 3.72991 22.3101 4.49744 22.9679 5.48211C23.6258 6.46678 23.9769 7.62437 23.9769 8.80856C23.9744 10.3967 23.3422 11.9191 22.2188 13.0417C21.0954 14.1643 19.5726 14.7955 17.9844 14.7968ZM17.9844 4.22535C17.0781 4.22618 16.1924 4.49569 15.4393 4.9998C14.6861 5.50392 14.0993 6.22001 13.7531 7.05756C13.4068 7.8951 13.3167 8.8165 13.494 9.70528C13.6713 10.5941 14.1081 11.4103 14.7493 12.0509C15.3904 12.6914 16.2071 13.1275 17.096 13.304C17.985 13.4805 18.9063 13.3895 19.7435 13.0425C20.5807 12.6955 21.2963 12.108 21.7997 11.3544C22.3031 10.6008 22.5718 9.71485 22.5718 8.80856C22.5698 7.59291 22.0857 6.4277 21.2257 5.56851C20.3657 4.70931 19.2 4.22627 17.9844 4.22535Z" fill="#FBAB4D"/>
<path id="Vector_7" d="M16.9869 11.0055C16.8006 11.0057 16.622 10.9319 16.4902 10.8004L15.4926 9.8035C15.3608 9.67178 15.2867 9.49308 15.2866 9.30672C15.2866 9.21445 15.3047 9.12307 15.34 9.03781C15.3753 8.95255 15.427 8.87507 15.4922 8.8098C15.5575 8.74453 15.6349 8.69274 15.7202 8.6574C15.8054 8.62206 15.8968 8.60385 15.989 8.60382C16.1754 8.60375 16.3541 8.67772 16.486 8.80945L16.9869 9.31034L19.4829 6.815C19.6147 6.68328 19.7935 6.60931 19.9798 6.60938C20.1662 6.60944 20.3449 6.68353 20.4766 6.81535C20.6083 6.94717 20.6823 7.12593 20.6822 7.31228C20.6822 7.49864 20.6081 7.67734 20.4762 7.80906L17.4835 10.7997C17.3518 10.9314 17.1732 11.0055 16.9869 11.0055Z" fill="#FBAB4D"/>
</g>
</g>
<defs>
<clipPath id="clip0_314_105608">
<rect width="35.9688" height="35.9393" fill="white"/>
</clipPath>
</defs>
</svg>
