<svg width="29" height="29" viewBox="0 0 29 29" fill="none" xmlns="http://www.w3.org/2000/svg">
<g id="Twitter">
<rect x="0.888184" y="0.366211" width="27.9116" height="27.9116" rx="13.9558" fill="#1D9BF0"/>
<path id="Vector" d="M12.2902 21.6837C18.4796 21.6837 21.8638 16.555 21.8638 12.1101C21.8638 11.9635 21.8638 11.817 21.8569 11.6774C22.5128 11.2029 23.085 10.6098 23.5385 9.93296C22.9384 10.1981 22.2895 10.3795 21.6057 10.4633C22.3034 10.0446 22.8338 9.38869 23.085 8.60018C22.436 8.98397 21.7173 9.26308 20.9497 9.4166C20.3357 8.76067 19.4634 8.35596 18.4935 8.35596C16.6374 8.35596 15.1302 9.86318 15.1302 11.7193C15.1302 11.9845 15.1581 12.2426 15.2209 12.4869C12.4227 12.3473 9.9456 11.0076 8.28486 8.97001C7.99876 9.46544 7.83129 10.0446 7.83129 10.6587C7.83129 11.824 8.42442 12.8567 9.33154 13.4568C8.78029 13.4428 8.26392 13.2893 7.81036 13.0381C7.81036 13.0521 7.81036 13.066 7.81036 13.08C7.81036 14.7128 8.96869 16.0665 10.5108 16.3805C10.2317 16.4573 9.93164 16.4992 9.62461 16.4992C9.4083 16.4992 9.19896 16.4782 8.98962 16.4364C9.41528 17.7761 10.6573 18.746 12.1297 18.774C10.9783 19.6741 9.52692 20.2114 7.94992 20.2114C7.67778 20.2114 7.41262 20.1974 7.14746 20.1626C8.6198 21.1255 10.3922 21.6837 12.2902 21.6837Z" fill="white"/>
</g>
</svg>
