<svg width="18" height="20" viewBox="0 0 18 20" fill="none" xmlns="http://www.w3.org/2000/svg">
<g id="Unlock">
<path id="Unlock_2" fill-rule="evenodd" clip-rule="evenodd" d="M5.12685 6.627H12.8833C15.4295 6.627 17.5 8.664 17.5 11.169V15.458C17.5 17.963 15.4295 20 12.8833 20H12.8538H9.44266C9.02185 20 8.68033 19.664 8.68033 19.25C8.68033 18.836 9.02185 18.5 9.44266 18.5H12.8538C14.5584 18.5 15.9459 17.136 15.9459 15.458C15.9459 15.4223 15.955 15.3899 15.964 15.3579C15.9681 15.3433 15.9722 15.3287 15.9753 15.314V11.169C15.9753 9.491 14.5889 8.127 12.8833 8.127H5.11668C3.41211 8.127 2.02466 9.491 2.02466 11.169V15.314C2.02785 15.3287 2.03193 15.3433 2.03604 15.3579C2.04503 15.3899 2.05414 15.4223 2.05414 15.458C2.05414 17.136 3.44158 18.5 5.14717 18.5C5.56798 18.5 5.90951 18.836 5.90951 19.25C5.90951 19.664 5.56798 20 5.14717 20C5.14348 20 5.13979 19.9995 5.13623 19.9989C5.13295 19.9985 5.12978 19.998 5.12685 19.998C5.12543 19.998 5.12402 19.9984 5.1225 19.9989C5.12075 19.9994 5.11886 20 5.11668 20C2.57049 20 0.5 17.963 0.5 15.458V11.169C0.5 9.189 1.80206 7.519 3.60218 6.898V5.301C3.6154 2.363 6.03046 0 8.98933 0H9.01372C11.3058 0 13.3519 1.434 14.103 3.567C14.2403 3.959 14.0299 4.386 13.6314 4.522C13.235 4.658 12.8 4.45 12.6617 4.058C12.124 2.528 10.6563 1.5 9.00966 1.5H8.99339C6.86801 1.5 5.13599 3.194 5.12685 5.284V6.627ZM9.76243 12.2029V14.4239C9.76243 14.8379 9.42091 15.1739 9.0001 15.1739C8.57929 15.1739 8.23777 14.8379 8.23777 14.4239V12.2029C8.23777 11.7889 8.57929 11.4529 9.0001 11.4529C9.42091 11.4529 9.76243 11.7889 9.76243 12.2029Z" fill="#100303"/>
</g>
</svg>
