<svg width="1920" height="606" viewBox="0 0 1920 606" fill="none" xmlns="http://www.w3.org/2000/svg">
<rect width="1920" height="605.488" fill="url(#paint0_linear_188_1404)"/>
<mask id="mask0_188_1404" style="mask-type:alpha" maskUnits="userSpaceOnUse" x="0" y="0" width="1920" height="606">
<rect width="1920" height="605.216" fill="#D9D9D9"/>
</mask>
<g mask="url(#mask0_188_1404)">
<g filter="url(#filter0_f_188_1404)">
<circle cx="1682.83" cy="282.786" r="154" fill="#7DFFE8"/>
</g>
<g filter="url(#filter1_f_188_1404)">
<circle cx="757.685" cy="542.632" r="154" fill="#7CFF99"/>
</g>
<g filter="url(#filter2_f_188_1404)">
<circle cx="1188.92" cy="552.614" r="224.617" fill="#EDFFBB"/>
</g>
<path d="M1300.7 511.969C1300.7 695.797 1151.68 767 967.851 767C784.023 767 635 695.797 635 511.969C635 328.14 784.023 179.117 967.851 179.117C1151.68 179.117 1300.7 328.14 1300.7 511.969Z" fill="white"/>
<g filter="url(#filter3_f_188_1404)">
<circle cx="972.387" cy="428.827" r="105.315" fill="white"/>
</g>
<path d="M956.147 658.314L904.745 676.778M956.147 658.314L956.147 250.992M956.147 658.314L1015.15 666.903M956.147 658.314L1175.16 585.61M1175.16 299.859L1123.17 288.257M1175.16 299.859L1175.16 375.841M1175.16 299.859L773.669 421.728M956.147 250.992L897.742 266.292M956.147 250.992L1015.15 264.156M853.343 695.243L783.615 720.291L781.084 644.309M853.343 695.243L839.337 281.592M853.343 695.243L904.745 676.778M839.337 281.592L769.609 299.859L771.639 360.793M839.337 281.592L897.742 266.292M897.742 266.292L904.745 676.778M1015.15 264.156L1015.15 666.903M1015.15 264.156L1071.17 276.655M1015.15 666.903L1071.17 675.058M1071.17 675.058L1071.17 276.655M1071.17 675.058L1123.17 682.627M1071.17 675.058L1175.16 637.903M1071.17 276.655L1123.17 288.257M1071.17 276.655L771.639 360.793M1123.17 288.257L1123.17 682.627M1123.17 682.627L1175.16 690.196L1175.16 637.903M781.084 644.309L1175.16 514.693M781.084 644.309L778.959 580.544M1175.16 514.693L1175.16 443.479M1175.16 514.693L1175.16 585.61M778.959 580.544L1175.16 443.479M778.959 580.544L776.359 502.477M1175.16 443.479L1175.16 375.841M776.359 502.477L1175.16 375.841M776.359 502.477L773.669 421.728M773.669 421.728L771.639 360.793M1175.16 585.61L1175.16 637.903" stroke="url(#paint1_linear_188_1404)" stroke-width="2"/>
</g>
<path d="M1743.89 348.659C1745.89 347.504 1748.39 348.948 1748.39 351.257L1748.39 377.368C1748.39 379.677 1745.89 381.12 1743.89 379.966L1721.28 366.91C1719.28 365.756 1719.28 362.869 1721.28 361.714L1743.89 348.659Z" fill="white"/>
<path d="M148.635 345.52L183.376 325.462L231.849 409.42L197.108 429.477L148.635 345.52Z" fill="#D7E1EB"/>
<path d="M896.227 440.99L893.581 433.976H882.787L880.141 440.99H874.429L885.265 412.052H891.061L901.897 440.99H896.227ZM888.163 418.226L884.593 429.272H891.817L888.163 418.226ZM910.015 431.12C910.015 434.396 912.409 436.496 915.223 436.496C918.079 436.496 920.389 434.354 920.389 431.12C920.389 427.928 918.079 425.828 915.223 425.828C912.577 425.828 910.015 427.76 910.015 431.12ZM909.931 440.99H904.807V410.708H909.931V423.98C910.981 422.006 913.417 420.956 916.063 420.956C921.229 420.956 925.681 424.946 925.681 431.204C925.681 437.42 921.229 441.41 916.063 441.41C913.501 441.41 910.981 440.318 909.931 438.344V440.99ZM939.266 436.37C942.122 436.37 944.39 434.312 944.39 431.12C944.39 427.97 942.122 425.996 939.266 425.996C936.41 425.996 934.142 427.97 934.142 431.12C934.142 434.312 936.41 436.37 939.266 436.37ZM939.266 441.368C933.722 441.368 929.06 437.294 929.06 431.12C929.06 424.904 933.722 420.956 939.266 420.956C944.81 420.956 949.472 424.904 949.472 431.12C949.472 437.294 944.81 441.368 939.266 441.368ZM966.961 431.834V421.376H972.085V440.99H966.961V438.218C965.869 440.318 963.517 441.41 961.543 441.41C956.881 441.41 953.815 438.512 953.815 432.968V421.376H958.981V432.044C958.981 435.236 960.913 436.412 962.719 436.412C964.861 436.412 966.961 435.236 966.961 431.834ZM984.617 413.9V421.376H988.775V425.492H984.617V440.99H979.535V425.492H975.965V421.376H979.535V413.9H984.617Z" fill="#100303"/>
<path d="M1013.64 436.328C1016.54 436.328 1019.23 434.144 1019.23 430.784V412.052H1024.61V430.784C1024.61 437.252 1019.52 441.41 1013.64 441.41C1007.72 441.41 1002.64 437.252 1002.64 430.784V412.052H1008.1V430.784C1008.1 434.144 1010.75 436.328 1013.64 436.328ZM1037.83 433.472L1035.14 432.8C1030.06 431.456 1029.6 429.062 1029.6 426.794C1029.6 423.602 1032.96 420.956 1036.82 420.956C1040.56 420.956 1044.26 422.636 1044.47 427.13H1039.6C1039.47 425.66 1038.13 425.114 1036.95 425.114C1035.65 425.114 1034.47 425.576 1034.47 427.046C1034.47 427.844 1035.4 428.39 1036.53 428.684L1039.81 429.482C1044.34 430.742 1044.93 433.766 1044.93 435.362C1044.93 439.394 1040.98 441.41 1036.91 441.41C1033.04 441.41 1029.14 439.016 1029.01 434.816H1033.8C1033.93 436.202 1035.52 437.42 1037.41 437.294C1038.88 437.252 1039.97 436.454 1039.97 435.32C1040.02 434.312 1039.3 433.808 1037.83 433.472Z" fill="#9586FB"/>
<defs>
<filter id="filter0_f_188_1404" x="1202.83" y="-197.214" width="960" height="960" filterUnits="userSpaceOnUse" color-interpolation-filters="sRGB">
<feFlood flood-opacity="0" result="BackgroundImageFix"/>
<feBlend mode="normal" in="SourceGraphic" in2="BackgroundImageFix" result="shape"/>
<feGaussianBlur stdDeviation="163" result="effect1_foregroundBlur_188_1404"/>
</filter>
<filter id="filter1_f_188_1404" x="277.685" y="62.6322" width="960" height="960" filterUnits="userSpaceOnUse" color-interpolation-filters="sRGB">
<feFlood flood-opacity="0" result="BackgroundImageFix"/>
<feBlend mode="normal" in="SourceGraphic" in2="BackgroundImageFix" result="shape"/>
<feGaussianBlur stdDeviation="163" result="effect1_foregroundBlur_188_1404"/>
</filter>
<filter id="filter2_f_188_1404" x="638.301" y="1.9967" width="1101.23" height="1101.23" filterUnits="userSpaceOnUse" color-interpolation-filters="sRGB">
<feFlood flood-opacity="0" result="BackgroundImageFix"/>
<feBlend mode="normal" in="SourceGraphic" in2="BackgroundImageFix" result="shape"/>
<feGaussianBlur stdDeviation="163" result="effect1_foregroundBlur_188_1404"/>
</filter>
<filter id="filter3_f_188_1404" x="667.072" y="123.512" width="610.63" height="610.63" filterUnits="userSpaceOnUse" color-interpolation-filters="sRGB">
<feFlood flood-opacity="0" result="BackgroundImageFix"/>
<feBlend mode="normal" in="SourceGraphic" in2="BackgroundImageFix" result="shape"/>
<feGaussianBlur stdDeviation="100" result="effect1_foregroundBlur_188_1404"/>
</filter>
<linearGradient id="paint0_linear_188_1404" x1="180" y1="69.2929" x2="976.637" y2="1050.47" gradientUnits="userSpaceOnUse">
<stop stop-color="#CFD4FF"/>
<stop offset="1" stop-color="#FFFFFD"/>
</linearGradient>
<linearGradient id="paint1_linear_188_1404" x1="1155.3" y1="327.207" x2="1009.8" y2="513.818" gradientUnits="userSpaceOnUse">
<stop stop-color="#CFDEEC"/>
<stop offset="1" stop-color="#B0C2D5" stop-opacity="0"/>
</linearGradient>
</defs>
</svg>
