<svg width="1920" height="606" viewBox="0 0 1920 606" fill="none" xmlns="http://www.w3.org/2000/svg">
<rect width="1920" height="605.488" fill="url(#paint0_linear_193_3635)"/>
<mask id="mask0_193_3635" style="mask-type:alpha" maskUnits="userSpaceOnUse" x="0" y="0" width="1920" height="606">
<rect width="1920" height="605.216" fill="#D9D9D9"/>
</mask>
<g mask="url(#mask0_193_3635)">
<g filter="url(#filter0_f_193_3635)">
<circle cx="1682.83" cy="282.786" r="154" fill="#FA95D1"/>
</g>
<g filter="url(#filter1_f_193_3635)">
<circle cx="757.684" cy="542.632" r="154" fill="#DDFF7C"/>
</g>
<g filter="url(#filter2_f_193_3635)">
<circle cx="1188.92" cy="552.613" r="224.617" fill="#FFC4BB"/>
</g>
<g filter="url(#filter3_f_193_3635)">
<circle cx="972.387" cy="428.827" r="105.315" fill="#CFDDEC"/>
</g>
</g>
<path d="M1743.89 348.659C1745.89 347.504 1748.39 348.948 1748.39 351.257L1748.39 377.368C1748.39 379.677 1745.89 381.12 1743.89 379.966L1721.28 366.91C1719.28 365.756 1719.28 362.869 1721.28 361.714L1743.89 348.659Z" fill="#FDD6D0"/>
<path d="M148.635 345.52L183.376 325.463L231.849 409.42L197.108 429.478L148.635 345.52Z" fill="#D7E1EB"/>
<defs>
<filter id="filter0_f_193_3635" x="1202.83" y="-197.214" width="960" height="960" filterUnits="userSpaceOnUse" color-interpolation-filters="sRGB">
<feFlood flood-opacity="0" result="BackgroundImageFix"/>
<feBlend mode="normal" in="SourceGraphic" in2="BackgroundImageFix" result="shape"/>
<feGaussianBlur stdDeviation="163" result="effect1_foregroundBlur_193_3635"/>
</filter>
<filter id="filter1_f_193_3635" x="277.684" y="62.6323" width="960" height="960" filterUnits="userSpaceOnUse" color-interpolation-filters="sRGB">
<feFlood flood-opacity="0" result="BackgroundImageFix"/>
<feBlend mode="normal" in="SourceGraphic" in2="BackgroundImageFix" result="shape"/>
<feGaussianBlur stdDeviation="163" result="effect1_foregroundBlur_193_3635"/>
</filter>
<filter id="filter2_f_193_3635" x="638.301" y="1.99658" width="1101.23" height="1101.23" filterUnits="userSpaceOnUse" color-interpolation-filters="sRGB">
<feFlood flood-opacity="0" result="BackgroundImageFix"/>
<feBlend mode="normal" in="SourceGraphic" in2="BackgroundImageFix" result="shape"/>
<feGaussianBlur stdDeviation="163" result="effect1_foregroundBlur_193_3635"/>
</filter>
<filter id="filter3_f_193_3635" x="667.072" y="123.512" width="610.63" height="610.63" filterUnits="userSpaceOnUse" color-interpolation-filters="sRGB">
<feFlood flood-opacity="0" result="BackgroundImageFix"/>
<feBlend mode="normal" in="SourceGraphic" in2="BackgroundImageFix" result="shape"/>
<feGaussianBlur stdDeviation="100" result="effect1_foregroundBlur_193_3635"/>
</filter>
<linearGradient id="paint0_linear_193_3635" x1="180" y1="69.2929" x2="976.637" y2="1050.47" gradientUnits="userSpaceOnUse">
<stop stop-color="#F5E9FF"/>
<stop offset="1" stop-color="#FFDBD5"/>
</linearGradient>
</defs>
</svg>
