<svg width="349" height="148" viewBox="0 0 349 148" fill="none" xmlns="http://www.w3.org/2000/svg">
<rect y="0.328125" width="348" height="147" rx="15" fill="#4CC1FF"/>
<mask id="mask0_314_105867" style="mask-type:alpha" maskUnits="userSpaceOnUse" x="-1" y="0" width="350" height="148">
<rect x="-0.115112" y="0.0585938" width="348.23" height="147.54" rx="15" fill="#FFF3E0"/>
</mask>
<g mask="url(#mask0_314_105867)">
<g clip-path="url(#clip0_314_105867)">
<path d="M283.594 -63.7984L213.271 1.98011C212.083 3.09191 212.02 4.97408 213.132 6.16269L240.058 34.9488L221.288 32.7728C217.575 32.3557 213.919 33.3852 210.993 35.7161C208.048 38.0254 206.22 41.3561 205.783 45.0472C205.366 48.7599 206.395 52.4162 208.726 55.3414C211.057 58.2666 214.366 60.1147 218.079 60.5318L269.613 66.5026L304.119 103.393C305.231 104.582 307.113 104.644 308.302 103.533L378.603 37.7742C379.792 36.6624 379.855 34.7803 378.743 33.5917L287.777 -63.6588C286.665 -64.8474 284.783 -64.9102 283.594 -63.7984ZM218.756 54.6714C216.608 54.4112 214.696 53.3634 213.35 51.6645C212.024 49.9872 211.425 47.8735 211.663 45.746C211.924 43.5982 212.992 41.7078 214.67 40.3402C216.348 39.0144 218.461 38.415 220.589 38.6535L220.985 38.6877L219.132 54.6839L218.756 54.6714ZM225.033 55.4043L226.886 39.4081L305.908 48.5578L314.273 57.6303L304.055 64.554L225.033 55.4043ZM372.399 35.4735L306.398 97.2091L278.664 67.5585L304.441 70.5547C305.151 70.6202 305.847 70.4551 306.447 70.0564L306.94 69.7169L301.45 74.8514L305.493 79.1737L354.443 33.3875L350.4 29.0652L321.138 56.4359C321.079 56.3292 321.041 56.2023 320.96 56.1159L312.495 46.9353L341.648 19.6657L337.605 15.3435L308.127 42.9163C307.962 42.8689 307.817 42.8013 307.672 42.7755L291.488 40.8952L328.81 5.98444L324.767 1.6622L283.771 40.0094L249.13 35.9845L219.475 4.28088L285.476 -57.4547L372.399 35.4735Z" fill="#1696DA"/>
<path d="M286.361 -39.4386L237.412 6.34766L241.455 10.6699L290.404 -35.1163L286.361 -39.4386Z" fill="#1696DA"/>
<path d="M299.177 -25.7393L250.228 20.0469L254.271 24.3691L303.22 -21.4171L299.177 -25.7393Z" fill="#1696DA"/>
<path d="M311.993 -12.0362L263.044 33.75L267.087 38.0722L316.036 -7.71398L311.993 -12.0362Z" fill="#1696DA"/>
</g>
</g>
<path d="M80.3469 44.3281H37.1816C36.452 44.3281 35.8551 44.9251 35.8551 45.6547V63.324L30.3765 56.8638C29.2887 55.5904 27.7765 54.8077 26.1051 54.6751C24.4336 54.5291 22.8153 55.0598 21.5418 56.1342C20.2683 57.222 19.4857 58.7342 19.353 60.4057C19.2204 62.0771 19.7377 63.6955 20.8255 64.9689L35.8683 82.7047V105.349C35.8683 106.078 36.4653 106.675 37.1949 106.675H80.3469C81.0765 106.675 81.6734 106.078 81.6734 105.349V45.6547C81.6734 44.9251 81.0765 44.3281 80.3469 44.3281ZM22.8418 63.2577C22.2183 62.5149 21.9132 61.5863 21.9928 60.6179C22.0724 59.6628 22.5234 58.7873 23.253 58.1638C23.9959 57.5404 24.9245 57.2485 25.8928 57.3149C26.8479 57.3945 27.7234 57.8455 28.3469 58.5751L28.4663 58.7077L22.9612 63.3771L22.8418 63.2577ZM24.6724 65.42L30.1775 60.7506L53.2459 87.9445L53.2061 93.4761L47.7408 92.6138L24.6724 65.42ZM79.0204 104.022H38.5081V85.822L46.0296 94.6965C46.2418 94.9353 46.5204 95.0945 46.8387 95.1475L47.1041 95.1873H43.7347V97.8404H73.7806V95.1873H55.8194C55.8326 95.1342 55.8592 95.0812 55.8592 95.0281L55.899 89.4302H73.7938V86.7771H55.7C55.6602 86.7108 55.6336 86.6445 55.5938 86.5914L50.8714 81.02H73.7806V78.3669H48.6163L38.5081 66.4414V46.9812H79.0204V104.022Z" fill="white"/>
<path d="M73.7938 53.1484H43.7479V55.8015H73.7938V53.1484Z" fill="white"/>
<path d="M73.7938 61.5586H43.7479V64.2117H73.7938V61.5586Z" fill="white"/>
<path d="M73.7938 69.9688H43.7479V72.6218H73.7938V69.9688Z" fill="white"/>
<defs>
<clipPath id="clip0_314_105867">
<rect width="145" height="145" fill="white" transform="translate(180 29.0508) rotate(-43.0876)"/>
</clipPath>
</defs>
</svg>
