<svg width="350" height="148" viewBox="0 0 350 148" fill="none" xmlns="http://www.w3.org/2000/svg">
<path d="M0.885132 15.0586C0.885132 6.77433 7.60086 0.0585938 15.8851 0.0585938H334.115C342.4 0.0585938 349.115 6.77432 349.115 15.0586V132.598C349.115 140.882 342.4 147.598 334.115 147.598H15.8851C7.60084 147.598 0.885132 140.882 0.885132 132.598V15.0586Z" fill="#FFC173"/>
<mask id="mask0_314_105887" style="mask-type:alpha" maskUnits="userSpaceOnUse" x="0" y="0" width="350" height="148">
<rect x="0.884888" y="0.0585938" width="348.23" height="147.54" rx="15" fill="#FFC173"/>
</mask>
<g mask="url(#mask0_314_105887)">
<path d="M38 47.7692L38 100.231C38 102.865 40.1266 105 42.75 105L71.25 105C73.8733 105 76 102.865 76 100.231L76 47.7692C76 45.1353 73.8734 43 71.25 43L42.75 43C40.1267 43 38 45.1353 38 47.7692Z" stroke="white" stroke-width="4" stroke-linecap="round" stroke-linejoin="round"/>
<path d="M66 95L47 95" stroke="white" stroke-width="4" stroke-linecap="round" stroke-linejoin="round"/>
<path d="M141.031 -53.7195L185.361 111.722C187.586 120.028 196.124 124.957 204.431 122.732L294.671 98.5519C302.978 96.3262 307.907 87.7882 305.681 79.4818L261.352 -85.9594C259.126 -94.2658 250.588 -99.1952 242.282 -96.9695L152.041 -72.7896C143.735 -70.5639 138.805 -62.0259 141.031 -53.7195Z" stroke="#EFA346" stroke-width="17" stroke-linecap="round" stroke-linejoin="round"/>
<path d="M271.57 72.5L211.41 88.6199" stroke="#EFA346" stroke-width="17" stroke-linecap="round" stroke-linejoin="round"/>
</g>
</svg>
