<svg width="348" height="148" viewBox="0 0 348 148" fill="none" xmlns="http://www.w3.org/2000/svg">
<rect y="0.328125" width="348" height="147" rx="15" fill="#00C92C"/>
<mask id="mask0_314_105903" style="mask-type:alpha" maskUnits="userSpaceOnUse" x="-1" y="0" width="350" height="148">
<rect x="-0.115112" y="0.0585938" width="348.23" height="147.54" rx="15" fill="#00C92C"/>
</mask>
<g mask="url(#mask0_314_105903)">
</g>
<g clip-path="url(#clip0_314_105903)">
<path d="M306.37 88.4655H337.558L321.4 133.744L324.03 134.684L338.121 95.2292V125.853H340.939V95.2292L355.03 134.684L357.661 133.744L341.503 88.4655H372.691V12.5625H306.37V88.4655ZM350.897 75.314L356.345 66.4837L368.37 85.8352H357.285L350.897 75.314ZM354.091 85.6474H337.933L331.358 75.314L339.436 62.3504C354.842 86.9625 342.254 66.6716 354.091 85.6474ZM334.551 85.6474H310.503L322.527 66.2958C334.739 85.8352 322.151 66.108 334.551 85.6474ZM369.685 15.3807V82.2655L357.473 62.914C356.909 61.9746 355.594 61.9746 355.03 62.914L349.018 72.4958L340.376 58.7807C339.812 57.8413 338.497 57.8413 337.933 58.7807L329.291 72.4958L323.279 62.914C323.091 62.5383 322.527 62.1625 322.151 62.1625C321.588 62.1625 321.212 62.3504 321.024 62.914L308.812 82.2655V15.3807H369.685Z" fill="#009921"/>
<path d="M324.97 18.95C319.333 18.95 314.636 23.4591 314.636 29.0955C314.636 34.7318 319.333 39.4288 324.97 39.4288C330.606 39.4288 335.303 34.9197 335.303 29.0955C335.303 24.0227 331.17 18.95 324.97 18.95ZM317.642 28.1561C318.206 24.9621 320.648 22.5197 323.655 21.9561V28.1561H317.642ZM324.97 36.6106C321.4 36.6106 318.582 34.1682 317.83 30.9742H326.473V21.9561C329.855 22.5197 332.485 25.5258 332.485 29.2833C332.485 33.2288 329.103 36.6106 324.97 36.6106ZM343.758 18.95H362.733V21.7682H343.758V18.95ZM343.758 27.7803H362.733V30.5985H343.758V27.7803ZM343.758 36.6106H362.733V39.4288H343.758V36.6106ZM362.921 43.5621H314.824V55.0227H363.109V43.5621H362.921ZM360.103 52.2045H317.642V46.3803H360.103V52.2045ZM278 135.435H302.988V12.75H278V135.435ZM300.17 15.5682V132.617H280.818V124.538H285.703V121.72H280.818V114.768H287.018V111.95H280.818V104.998H283.636V102.18H280.818V95.2288H287.018V92.4106H280.818V85.2712H285.703V82.453H280.818V75.5015H287.018V72.6833H280.818V65.7318H283.636V62.9136H280.818V55.9621H287.018V53.1439H280.818V46.1924H285.703V43.3742H280.818V36.4227H287.018V33.6045H280.818V26.4652H285.703V23.647H280.818V15.5682H300.17Z" fill="#009921"/>
</g>
<g clip-path="url(#clip1_314_105903)">
<path d="M47.4 81.7008H64L55.4 105.801L56.8 106.301L64.3 85.3008V101.601H65.8V85.3008L73.3 106.301L74.7 105.801L66.1 81.7008H82.7V41.3008H47.4V81.7008ZM71.1 74.7008L74 70.0008L80.4 80.3008H74.5L71.1 74.7008ZM72.8 80.2008H64.2L60.7 74.7008L65 67.8008C73.2 80.9008 66.5 70.1008 72.8 80.2008ZM62.4 80.2008H49.6L56 69.9008C62.5 80.3008 55.8 69.8008 62.4 80.2008ZM81.1 42.8008V78.4008L74.6 68.1008C74.3 67.6008 73.6 67.6008 73.3 68.1008L70.1 73.2008L65.5 65.9008C65.2 65.4008 64.5 65.4008 64.2 65.9008L59.6 73.2008L56.4 68.1008C56.3 67.9008 56 67.7008 55.8 67.7008C55.5 67.7008 55.3 67.8008 55.2 68.1008L48.7 78.4008V42.8008H81.1Z" fill="white"/>
<path d="M57.3 44.7023C54.3 44.7023 51.8 47.1023 51.8 50.1023C51.8 53.1023 54.3 55.6023 57.3 55.6023C60.3 55.6023 62.8 53.2023 62.8 50.1023C62.8 47.4023 60.6 44.7023 57.3 44.7023ZM53.4 49.6023C53.7 47.9023 55 46.6023 56.6 46.3023V49.6023H53.4ZM57.3 54.1023C55.4 54.1023 53.9 52.8023 53.5 51.1023H58.1V46.3023C59.9 46.6023 61.3 48.2023 61.3 50.2023C61.3 52.3023 59.5 54.1023 57.3 54.1023ZM67.3 44.7023H77.4001V46.2023H67.3V44.7023ZM67.3 49.4023H77.4001V50.9023H67.3V49.4023ZM67.3 54.1023H77.4001V55.6023H67.3V54.1023ZM77.5 57.8023H51.9V63.9023H77.6V57.8023H77.5ZM76 62.4023H53.4V59.3023H76V62.4023ZM32.3 106.702H45.6V41.4023H32.3V106.702ZM44.1 42.9023V105.202H33.8V100.902H36.4V99.4023H33.8V95.7023H37.1V94.2023H33.8V90.5023H35.3V89.0023H33.8V85.3023H37.1V83.8023H33.8V80.0023H36.4V78.5023H33.8V74.8023H37.1V73.3023H33.8V69.6023H35.3V68.1023H33.8V64.4023H37.1V62.9023H33.8V59.2023H36.4V57.7023H33.8V54.0023H37.1V52.5023H33.8V48.7023H36.4V47.2023H33.8V42.9023H44.1ZM97.7 53.7023L91.8 41.8023C91.5 41.3023 90.7001 41.3023 90.5 41.8023L84.6 53.7023C84.5 53.8023 84.5 53.9023 84.5 54.0023V106.002C84.5 106.402 84.8 106.802 85.3 106.802H97C97.4 106.802 97.8 106.502 97.8 106.002V54.0023C97.8 53.9023 97.7 53.8023 97.7 53.7023ZM91.1 43.8023L96.1 53.8023C94.5 52.7023 92.3 53.1023 91.1 54.7023C89.9 53.1023 87.7 52.8023 86.1 53.8023L91.1 43.8023ZM90.3 56.9023V97.4023H85.9001V56.9023C85.9001 54.0023 90.3 54.0023 90.3 56.9023ZM85.9001 105.202V98.9023H96.2V105.202H85.9001ZM96.3 97.4023H91.9001V56.9023C91.9001 54.1023 96.3 54.1023 96.3 56.9023V97.4023Z" fill="white"/>
</g>
<defs>
<clipPath id="clip0_314_105903">
<rect width="124" height="124" fill="white" transform="translate(224 12)"/>
</clipPath>
<clipPath id="clip1_314_105903">
<rect width="66" height="66" fill="white" transform="translate(32 41)"/>
</clipPath>
</defs>
</svg>
