<svg width="67" height="67" viewBox="0 0 67 67" fill="none" xmlns="http://www.w3.org/2000/svg">
<g id="Icon">
<g id="Iocn">
<g id="Icon_2">
<g id="Iocn_2">
<rect id="bg" width="56.8481" height="56.8481" rx="13.3238" transform="matrix(1 0 0 -1 0.538635 57.3066)" fill="url(#paint0_linear_314_105550)"/>
</g>
<g id="bg_2" filter="url(#filter0_b_314_105550)">
<rect width="56.8481" height="56.8481" rx="13.3238" transform="matrix(1 0 0 -1 9.4212 66.1892)" fill="#EEEEEE" fill-opacity="0.61"/>
<rect x="0.444126" y="-0.444126" width="55.9599" height="55.9599" rx="12.8797" transform="matrix(1 0 0 -1 9.4212 65.301)" stroke="white" stroke-width="0.888252"/>
</g>
</g>
<g id="Group">
<path id="Vector" d="M48.1441 39.615L48.144 39.6155C47.9669 40.1616 48.0266 40.7379 48.1181 41.2054C48.1969 41.6076 48.323 42.0337 48.4344 42.4096C48.4546 42.4781 48.4744 42.5449 48.4933 42.6096C48.6256 43.062 48.7205 43.4265 48.7487 43.7277C48.7771 44.0316 48.7223 44.126 48.7087 44.1447L48.7085 44.1449C48.692 44.1676 48.6157 44.25 48.3177 44.3174C48.0219 44.3842 47.6451 44.4068 47.1744 44.4205C47.1035 44.4225 47.0301 44.4243 46.9548 44.4262C46.5662 44.436 46.1268 44.447 45.7257 44.4945C45.2557 44.5502 44.6886 44.669 44.2253 45.0059L44.225 45.0061C43.7626 45.3425 43.4771 45.8464 43.2816 46.2746C43.1164 46.6364 42.9727 47.0459 42.8453 47.4092C42.8189 47.4844 42.7932 47.5576 42.7682 47.628C42.6107 48.0711 42.4726 48.4226 42.3169 48.6834C42.1606 48.9453 42.0564 48.9958 42.0241 49.0063L42.0236 49.0064C42.0102 49.0108 41.9098 49.0361 41.6301 48.9137C41.354 48.7929 41.0379 48.5891 40.6477 48.3223C40.5971 48.2877 40.5451 48.2519 40.4918 48.2153C40.1637 47.9895 39.79 47.7323 39.4221 47.5291C39.0009 47.2964 38.4685 47.0639 37.8908 47.0639C37.3132 47.0639 36.7808 47.2964 36.3596 47.5291C35.9917 47.7323 35.618 47.9895 35.2899 48.2153C35.2366 48.2519 35.1846 48.2877 35.134 48.3223C34.7438 48.5891 34.4277 48.7929 34.1516 48.9137C33.8718 49.0361 33.7715 49.0108 33.7581 49.0064L33.7576 49.0063C33.7253 48.9958 33.6211 48.9453 33.4648 48.6834C33.3091 48.4226 33.171 48.0711 33.0135 47.628C32.9885 47.5576 32.9628 47.4844 32.9364 47.4092C32.809 47.0459 32.6653 46.6364 32.5001 46.2746C32.3046 45.8464 32.0191 45.3425 31.5567 45.0061L31.5564 45.0059C31.0931 44.669 30.526 44.5502 30.056 44.4945C29.6549 44.447 29.2155 44.436 28.8269 44.4262C28.7516 44.4243 28.6782 44.4225 28.6073 44.4205C28.1366 44.4068 27.7598 44.3842 27.464 44.3174C27.166 44.25 27.0897 44.1676 27.0732 44.1449L27.073 44.1447C27.0594 44.126 27.0046 44.0316 27.033 43.7277C27.0612 43.4265 27.1561 43.062 27.2884 42.6096C27.3073 42.5449 27.3271 42.4781 27.3473 42.4096C27.4586 42.0337 27.5848 41.6076 27.6636 41.2054C27.7551 40.7379 27.8148 40.1616 27.6377 39.6155L27.6376 39.615C27.4616 39.0732 27.0696 38.6485 26.7252 38.3339C26.4384 38.0718 26.0998 37.8135 25.7984 37.5836C25.7305 37.5317 25.6645 37.4814 25.6014 37.4328C25.2304 37.1468 24.9396 36.9061 24.7404 36.6762C24.5413 36.4463 24.5212 36.3263 24.5212 36.2824C24.5212 36.2385 24.5413 36.1185 24.7404 35.8886C24.9396 35.6586 25.2304 35.4179 25.6014 35.132C25.6645 35.0834 25.7305 35.033 25.7984 34.9812C26.0998 34.7513 26.4384 34.493 26.7252 34.2309C27.0696 33.9162 27.4616 33.4915 27.6376 32.9497L27.6377 32.9493C27.8148 32.4031 27.7551 31.8268 27.6636 31.3593C27.5848 30.9572 27.4586 30.5311 27.3473 30.1551C27.3271 30.0867 27.3073 30.0198 27.2884 29.9551C27.1561 29.5028 27.0612 29.1382 27.033 28.8371C27.0046 28.5332 27.0594 28.4388 27.073 28.4201L27.0732 28.4198C27.0897 28.3972 27.166 28.3148 27.464 28.2474C27.7598 28.1805 28.1366 28.1579 28.6073 28.1443C28.6782 28.1423 28.7516 28.1404 28.8269 28.1385C29.2155 28.1288 29.6549 28.1178 30.056 28.0703C30.526 28.0146 31.0931 27.8958 31.5564 27.5589L31.5567 27.5587C32.0191 27.2223 32.3046 26.7184 32.5001 26.2901C32.6653 25.9284 32.809 25.5188 32.9364 25.1556C32.9628 25.0804 32.9885 25.0071 33.0135 24.9367C33.171 24.4937 33.3091 24.1421 33.4648 23.8814C33.6211 23.6195 33.7253 23.569 33.7576 23.5585L33.7581 23.5584C33.7715 23.554 33.8718 23.5287 34.1516 23.6511C34.4277 23.7719 34.7438 23.9756 35.134 24.2425C35.1846 24.2771 35.2366 24.3129 35.2899 24.3495C35.618 24.5753 35.9917 24.8324 36.3596 25.0357C36.7808 25.2684 37.3132 25.5009 37.8908 25.5009C38.4685 25.5009 39.0009 25.2684 39.4221 25.0357C39.79 24.8324 40.1637 24.5753 40.4918 24.3495C40.5451 24.3129 40.5971 24.2771 40.6477 24.2425C41.0379 23.9756 41.354 23.7719 41.6301 23.6511C41.9098 23.5287 42.0102 23.554 42.0236 23.5584L42.0241 23.5585C42.0564 23.569 42.1606 23.6195 42.3169 23.8814C42.4726 24.1421 42.6107 24.4937 42.7682 24.9367C42.7932 25.0071 42.8189 25.0803 42.8453 25.1555C42.9727 25.5188 43.1164 25.9284 43.2816 26.2901C43.4771 26.7184 43.7626 27.2223 44.225 27.5587L44.2253 27.5589C44.6886 27.8958 45.2557 28.0146 45.7257 28.0703C46.1268 28.1178 46.5662 28.1288 46.9548 28.1385C47.0301 28.1404 47.1035 28.1423 47.1744 28.1443C47.6451 28.1579 48.0219 28.1805 48.3177 28.2474C48.6157 28.3148 48.692 28.3972 48.7085 28.4198L48.7087 28.4201C48.7223 28.4388 48.7771 28.5332 48.7487 28.8371C48.7205 29.1382 48.6256 29.5028 48.4933 29.9551C48.4744 30.0199 48.4546 30.0867 48.4344 30.1552C48.323 30.5311 48.1969 30.9572 48.1181 31.3593C48.0266 31.8268 47.9669 32.4031 48.144 32.9493C48.3192 33.4911 48.7115 33.9154 49.0553 34.2292C49.3415 34.4904 49.6796 34.7482 49.9806 34.9776C50.0491 35.0298 50.1156 35.0806 50.1792 35.1295C50.5502 35.4153 50.8413 35.6562 51.0406 35.8865C51.2398 36.1165 51.2604 36.2373 51.2604 36.2824C51.2604 36.3277 51.2398 36.4483 51.0411 36.6778C50.8421 36.9077 50.5514 37.1483 50.1806 37.4339C50.1172 37.4827 50.0508 37.5333 49.9826 37.5853C49.6815 37.8148 49.3433 38.0726 49.0568 38.3341C48.7123 38.6485 48.3201 39.0731 48.1441 39.615ZM37.845 42.2063C41.279 42.2063 44.0628 39.4226 44.0628 35.9886C44.0628 32.5546 41.279 29.7708 37.845 29.7708C34.4111 29.7708 31.6273 32.5546 31.6273 35.9886C31.6273 39.4226 34.4111 42.2063 37.845 42.2063ZM42.2863 35.9886C42.2863 38.4414 40.2979 40.4298 37.845 40.4298C35.3922 40.4298 33.4038 38.4414 33.4038 35.9886C33.4038 33.5357 35.3922 31.5473 37.845 31.5473C40.2979 31.5473 42.2863 33.5357 42.2863 35.9886Z" stroke="#E749EE" stroke-width="1.7765"/>
</g>
</g>
</g>
<defs>
<filter id="filter0_b_314_105550" x="2.31519" y="2.23505" width="71.0601" height="71.0602" filterUnits="userSpaceOnUse" color-interpolation-filters="sRGB">
<feFlood flood-opacity="0" result="BackgroundImageFix"/>
<feGaussianBlur in="BackgroundImageFix" stdDeviation="3.55301"/>
<feComposite in2="SourceAlpha" operator="in" result="effect1_backgroundBlur_314_105550"/>
<feBlend mode="normal" in="SourceGraphic" in2="effect1_backgroundBlur_314_105550" result="shape"/>
</filter>
<linearGradient id="paint0_linear_314_105550" x1="28.4241" y1="0" x2="28.4241" y2="56.8481" gradientUnits="userSpaceOnUse">
<stop stop-color="#E541ED"/>
<stop offset="1" stop-color="#FEEBFF"/>
</linearGradient>
</defs>
</svg>
