<svg width="139" height="29" viewBox="0 0 139 29" fill="none" xmlns="http://www.w3.org/2000/svg">
<g id="Star">
<path id="Star 3" d="M13.0489 3.3001C13.3483 2.37879 14.6517 2.37879 14.9511 3.3001L16.9187 9.35583C17.0526 9.76785 17.4365 10.0468 17.8697 10.0468H24.2371C25.2058 10.0468 25.6086 11.2864 24.8249 11.8558L19.6736 15.5985C19.3231 15.8531 19.1764 16.3045 19.3103 16.7165L21.2779 22.7722C21.5773 23.6935 20.5228 24.4597 19.7391 23.8903L14.5878 20.1476C14.2373 19.893 13.7627 19.893 13.4122 20.1476L8.2609 23.8903C7.47719 24.4597 6.42271 23.6935 6.72206 22.7722L8.68969 16.7165C8.82356 16.3045 8.6769 15.8531 8.32642 15.5985L3.17511 11.8558C2.39139 11.2864 2.79417 10.0468 3.76289 10.0468H10.1303C10.5635 10.0468 10.9474 9.76785 11.0813 9.35583L13.0489 3.3001Z" fill="#FFA722"/>
<path id="Star 5" d="M68.5457 3.41872C68.8386 2.48403 70.1614 2.48404 70.4543 3.41873L72.3113 9.34579C72.442 9.76291 72.8284 10.0468 73.2656 10.0468H79.3503C80.3101 10.0468 80.7187 11.2679 79.952 11.8455L74.9676 15.601C74.6298 15.8555 74.4886 16.2951 74.6151 16.6987L76.5041 22.7278C76.7948 23.6555 75.7245 24.4105 74.9481 23.8254L70.1018 20.174C69.7455 19.9055 69.2545 19.9055 68.8982 20.174L64.0519 23.8254C63.2755 24.4105 62.2052 23.6555 62.4959 22.7278L64.3849 16.6987C64.5114 16.2951 64.3702 15.8555 64.0324 15.601L59.048 11.8455C58.2813 11.2679 58.6899 10.0468 59.6497 10.0468H65.7344C66.1716 10.0468 66.558 9.76291 66.6887 9.34579L68.5457 3.41872Z" fill="#FFA722"/>
<path id="Star 7" d="M125 3.60911L126.968 9.66484C127.235 10.4889 128.003 11.0468 128.87 11.0468H135.237L130.086 14.7895C129.385 15.2987 129.092 16.2015 129.359 17.0255L131.327 23.0813L126.176 19.3386C125.475 18.8293 124.525 18.8293 123.824 19.3386L118.673 23.0813L120.641 17.0255C120.908 16.2015 120.615 15.2987 119.914 14.7895L114.763 11.0468L121.13 11.0468C121.997 11.0468 122.765 10.4889 123.032 9.66484L125 3.60911Z" stroke="#FFA722" stroke-width="2"/>
<path id="Star 4" d="M41.0489 3.3001C41.3483 2.37879 42.6517 2.37879 42.9511 3.3001L44.9187 9.35583C45.0526 9.76785 45.4365 10.0468 45.8697 10.0468H52.2371C53.2058 10.0468 53.6086 11.2864 52.8249 11.8558L47.6736 15.5985C47.3231 15.8531 47.1764 16.3045 47.3103 16.7165L49.2779 22.7722C49.5773 23.6935 48.5228 24.4597 47.7391 23.8903L42.5878 20.1476C42.2373 19.893 41.7627 19.893 41.4122 20.1476L36.2609 23.8903C35.4772 24.4597 34.4227 23.6935 34.7221 22.7722L36.6897 16.7165C36.8236 16.3045 36.6769 15.8531 36.3264 15.5985L31.1751 11.8558C30.3914 11.2864 30.7942 10.0468 31.7629 10.0468H38.1303C38.5635 10.0468 38.9474 9.76785 39.0813 9.35583L41.0489 3.3001Z" fill="#FFA722"/>
<path id="Star 6" d="M96.0489 3.3001C96.3483 2.37879 97.6517 2.37879 97.9511 3.3001L99.9187 9.35583C100.053 9.76785 100.437 10.0468 100.87 10.0468H107.237C108.206 10.0468 108.609 11.2864 107.825 11.8558L102.674 15.5985C102.323 15.8531 102.176 16.3045 102.31 16.7165L104.278 22.7722C104.577 23.6935 103.523 24.4597 102.739 23.8903L97.5878 20.1476C97.2373 19.893 96.7627 19.893 96.4122 20.1476L91.2609 23.8903C90.4772 24.4597 89.4227 23.6935 89.7221 22.7722L91.6897 16.7165C91.8236 16.3045 91.6769 15.8531 91.3264 15.5985L86.1751 11.8558C85.3914 11.2864 85.7942 10.0468 86.7629 10.0468H93.1303C93.5635 10.0468 93.9474 9.76785 94.0813 9.35583L96.0489 3.3001Z" fill="#FFA722"/>
<g id="Mask Group">
<mask id="mask0_314_105974" style="mask-type:alpha" maskUnits="userSpaceOnUse" x="113" y="2" width="24" height="22">
<path id="Star 8" d="M124.039 2.92705C124.338 2.00574 125.642 2.00574 125.941 2.92705L127.911 8.98961C128.045 9.40163 128.429 9.68059 128.862 9.68059H135.237C136.205 9.68059 136.608 10.9202 135.824 11.4896L130.667 15.2365C130.317 15.4911 130.17 15.9425 130.304 16.3545L132.274 22.4171C132.573 23.3384 131.519 24.1045 130.735 23.5351L125.578 19.7882C125.227 19.5336 124.753 19.5336 124.402 19.7882L119.245 23.5351C118.461 24.1045 117.407 23.3384 117.706 22.4171L119.676 16.3545C119.81 15.9425 119.663 15.4911 119.313 15.2365L114.156 11.4896C113.372 10.9202 113.775 9.68059 114.744 9.68059H121.118C121.551 9.68059 121.935 9.40163 122.069 8.98961L124.039 2.92705Z" fill="#FFA722"/>
</mask>
<g mask="url(#mask0_314_105974)">
<rect id="Rectangle 40" x="113.727" y="0.549805" width="10.9881" height="25.2727" rx="1" fill="#FFA722"/>
</g>
</g>
</g>
</svg>
