<svg width="124" height="20" viewBox="0 0 124 20" fill="none" xmlns="http://www.w3.org/2000/svg">
<path d="M4.42 19.38C3.58 19.38 2.88 19.2133 2.32 18.88C1.77333 18.56 1.36667 18.12 1.1 17.56C0.833333 17 0.7 16.3933 0.7 15.74C0.7 15.0067 0.84 14.26 1.12 13.5C1.41333 12.74 1.86 12 2.46 11.28C3.07333 10.56 3.86 9.90667 4.82 9.32V4.1H2.02V0.999999H8.32V14.76C8.32 15.7467 8.17333 16.5867 7.88 17.28C7.6 17.9733 7.17333 18.4933 6.6 18.84C6.02667 19.2 5.3 19.38 4.42 19.38ZM4.24 16.18C4.38667 16.18 4.51333 16.14 4.62 16.06C4.72667 15.98 4.80667 15.8667 4.86 15.72C4.92667 15.5733 4.96 15.3933 4.96 15.18V12.4C4.54667 12.7733 4.23333 13.1333 4.02 13.48C3.80667 13.8267 3.66667 14.1467 3.6 14.44C3.54667 14.7333 3.52 14.9933 3.52 15.22C3.52 15.5267 3.59333 15.76 3.74 15.92C3.88667 16.0933 4.05333 16.18 4.24 16.18ZM17.4189 15.26C16.3122 15.26 15.2989 15.08 14.3789 14.72C13.4589 14.3467 12.6656 13.8333 11.9989 13.18C11.3456 12.5133 10.8322 11.74 10.4589 10.86C10.0989 9.98 9.91891 9.02667 9.91891 8C9.91891 6.97333 10.0989 6.02 10.4589 5.14C10.8322 4.24667 11.3456 3.47333 11.9989 2.82C12.6656 2.16667 13.4589 1.66 14.3789 1.3C15.2989 0.926665 16.3122 0.739999 17.4189 0.739999C18.5389 0.739999 19.5522 0.926665 20.4589 1.3C21.3789 1.66 22.1722 2.16667 22.8389 2.82C23.5056 3.47333 24.0189 4.24667 24.3789 5.14C24.7389 6.02 24.9189 6.97333 24.9189 8C24.9189 9.02667 24.7389 9.98 24.3789 10.86C24.0189 11.74 23.5056 12.5133 22.8389 13.18C22.1722 13.8333 21.3789 14.3467 20.4589 14.72C19.5522 15.08 18.5389 15.26 17.4189 15.26ZM17.4189 12.1C17.9656 12.1 18.4589 12 18.8989 11.8C19.3522 11.5867 19.7389 11.2933 20.0589 10.92C20.3922 10.5333 20.6389 10.0933 20.7989 9.6C20.9722 9.10667 21.0589 8.57333 21.0589 8C21.0589 7.42667 20.9722 6.89333 20.7989 6.4C20.6389 5.89333 20.3922 5.45333 20.0589 5.08C19.7389 4.70667 19.3522 4.42 18.8989 4.22C18.4589 4.00667 17.9656 3.9 17.4189 3.9C16.8856 3.9 16.3922 4.00667 15.9389 4.22C15.4856 4.42 15.0989 4.70667 14.7789 5.08C14.4589 5.45333 14.2122 5.89333 14.0389 6.4C13.8656 6.89333 13.7789 7.42667 13.7789 8C13.7789 8.57333 13.8656 9.10667 14.0389 9.6C14.2122 10.0933 14.4589 10.5333 14.7789 10.92C15.0989 11.2933 15.4856 11.5867 15.9389 11.8C16.3922 12 16.8856 12.1 17.4189 12.1ZM32.5927 15.24C31.3927 15.24 30.3327 15.0067 29.4127 14.54C28.4927 14.06 27.7727 13.3867 27.2527 12.52C26.7327 11.64 26.4727 10.6067 26.4727 9.42V0.999999H30.2527V9.6C30.2527 10.0667 30.346 10.4933 30.5327 10.88C30.7327 11.2533 31.006 11.5533 31.3527 11.78C31.6993 11.9933 32.1127 12.1 32.5927 12.1C33.0593 12.1 33.466 11.9933 33.8127 11.78C34.1593 11.5533 34.426 11.2533 34.6127 10.88C34.7993 10.4933 34.8927 10.0667 34.8927 9.6V0.999999H38.6727V9.42C38.6727 10.6067 38.4127 11.64 37.8927 12.52C37.3727 13.3867 36.6527 14.06 35.7327 14.54C34.826 15.0067 33.7793 15.24 32.5927 15.24ZM40.7319 15V0.999999H47.2319C48.2185 0.999999 49.1119 1.21333 49.9119 1.64C50.7119 2.05333 51.3519 2.63333 51.8319 3.38C52.3119 4.11333 52.5519 4.97333 52.5519 5.96C52.5519 6.81333 52.3452 7.6 51.9319 8.32C51.5319 9.02667 50.9919 9.6 50.3119 10.04L51.2519 11.6C51.3319 11.72 51.4185 11.8133 51.5119 11.88C51.6185 11.9333 51.7585 11.96 51.9319 11.96H53.0519V15H50.9719C50.3052 15 49.7119 14.8533 49.1919 14.56C48.6719 14.2533 48.2719 13.86 47.9919 13.38L46.5719 10.94C46.4919 10.94 46.4119 10.94 46.3319 10.94C46.2519 10.94 46.1785 10.94 46.1119 10.94H44.5519V15H40.7319ZM44.5519 7.9H46.8319C47.1652 7.9 47.4719 7.82667 47.7519 7.68C48.0452 7.52 48.2719 7.29333 48.4319 7C48.6052 6.70667 48.6919 6.36667 48.6919 5.98C48.6919 5.59333 48.6052 5.26 48.4319 4.98C48.2585 4.7 48.0319 4.48667 47.7519 4.34C47.4719 4.18 47.1652 4.1 46.8319 4.1H44.5519V7.9ZM64.6437 15.26C63.8038 15.26 63.0238 15.08 62.3038 14.72C61.5971 14.3467 61.0304 13.8333 60.6038 13.18C60.1771 12.5133 59.9638 11.7267 59.9638 10.82V5.06C59.9638 4.86 59.9171 4.68667 59.8238 4.54C59.7438 4.38 59.6304 4.26 59.4838 4.18C59.3371 4.1 59.1704 4.06 58.9838 4.06C58.7971 4.06 58.6304 4.1 58.4837 4.18C58.3371 4.26 58.2171 4.38 58.1238 4.54C58.0304 4.68667 57.9838 4.86 57.9838 5.06V15H54.2838V5.2C54.2838 4.29333 54.4971 3.50667 54.9238 2.84C55.3504 2.17333 55.9171 1.66 56.6238 1.3C57.3438 0.926665 58.1304 0.739999 58.9838 0.739999C59.8371 0.739999 60.6171 0.926665 61.3238 1.3C62.0304 1.66 62.5971 2.17333 63.0238 2.84C63.4504 3.50667 63.6638 4.29333 63.6638 5.2V10.96C63.6638 11.16 63.7104 11.34 63.8038 11.5C63.8971 11.6467 64.0171 11.7667 64.1638 11.86C64.3104 11.94 64.4704 11.98 64.6437 11.98C64.8171 11.98 64.9771 11.94 65.1238 11.86C65.2838 11.7667 65.4104 11.6467 65.5038 11.5C65.5971 11.34 65.6438 11.16 65.6438 10.96V0.999999H69.3438V10.82C69.3438 11.7267 69.1304 12.5133 68.7038 13.18C68.2771 13.8333 67.7038 14.3467 66.9838 14.72C66.2771 15.08 65.4971 15.26 64.6437 15.26ZM70.2969 15L74.7969 2.7C75.0502 2.04667 75.4502 1.56 75.9969 1.24C76.5435 0.906666 77.1635 0.739999 77.8569 0.739999C78.5502 0.739999 79.1702 0.899999 79.7169 1.22C80.2769 1.54 80.6769 2.02667 80.9169 2.68L85.4169 15H81.3169L80.4969 12.44H75.1369L74.2769 15H70.2969ZM76.0369 9.4H79.6169L78.0769 4.34C78.0635 4.28667 78.0369 4.24667 77.9969 4.22C77.9569 4.19333 77.9102 4.18 77.8569 4.18C77.8169 4.18 77.7769 4.19333 77.7369 4.22C77.7102 4.24667 77.6835 4.28667 77.6569 4.34L76.0369 9.4ZM90.5811 15C89.6744 15 88.8811 14.8067 88.2011 14.42C87.5211 14.02 86.9944 13.4933 86.6211 12.84C86.2478 12.1867 86.0611 11.4667 86.0611 10.68V0.999999H89.8811V10.82C89.8811 11.1133 89.9811 11.3667 90.1811 11.58C90.3944 11.7933 90.6478 11.9 90.9411 11.9H94.6411V15H90.5811Z" fill="white"/>
<path d="M99.6914 15L104.191 2.7C104.445 2.04667 104.845 1.56 105.391 1.24C105.938 0.906666 106.558 0.739999 107.251 0.739999C107.945 0.739999 108.565 0.899999 109.111 1.22C109.671 1.54 110.071 2.02667 110.311 2.68L114.811 15H110.711L109.891 12.44H104.531L103.671 15H99.6914ZM105.431 9.4H109.011L107.471 4.34C107.458 4.28667 107.431 4.24667 107.391 4.22C107.351 4.19333 107.305 4.18 107.251 4.18C107.211 4.18 107.171 4.19333 107.131 4.22C107.105 4.24667 107.078 4.28667 107.051 4.34L105.431 9.4ZM115.589 15V11.9H117.869V4.1H115.589V0.999999H124.009V4.1H121.709V11.9H124.009V15H115.589Z" fill="#9182F5"/>
</svg>
