<?xml version="1.0" encoding="UTF-8"?>
<!DOCTYPE svg PUBLIC "-//W3C//DTD SVG 1.1//EN" "http://www.w3.org/Graphics/SVG/1.1/DTD/svg11.dtd">
<svg xmlns="http://www.w3.org/2000/svg" version="1.1" width="124px" height="20px" style="shape-rendering:geometricPrecision; text-rendering:geometricPrecision; image-rendering:optimizeQuality; fill-rule:evenodd; clip-rule:evenodd" xmlns:xlink="http://www.w3.org/1999/xlink">
<g><path style="opacity:0.797" fill="#0f0303" d="M 14.5,-0.5 C 15.8333,-0.5 17.1667,-0.5 18.5,-0.5C 24.1309,1.53227 25.9643,5.53227 24,11.5C 17.6048,17.421 12.6048,16.421 9,8.5C 8.66667,11.1667 8.33333,13.8333 8,16.5C 7.30206,17.6906 6.46872,18.6906 5.5,19.5C 4.16667,19.5 2.83333,19.5 1.5,19.5C 1.06795,18.2905 0.40128,17.2905 -0.5,16.5C -0.5,15.5 -0.5,14.5 -0.5,13.5C 0.983871,11.4965 2.3172,9.32988 3.5,7C 2.38175,4.94099 1.71509,2.77432 1.5,0.5C 3.83333,0.5 6.16667,0.5 8.5,0.5C 8.33788,2.5273 8.50454,4.5273 9,6.5C 9.93826,3.40247 11.7716,1.06914 14.5,-0.5 Z M 16.5,3.5 C 21.8068,6.1269 21.8068,8.79356 16.5,11.5C 12.5265,8.7973 12.5265,6.13063 16.5,3.5 Z"/></g>
<g><path style="opacity:0.83" fill="#0f0303" d="M 56.5,-0.5 C 57.8333,-0.5 59.1667,-0.5 60.5,-0.5C 61.4687,0.309426 62.3021,1.30943 63,2.5C 63.3333,5.16667 63.6667,7.83333 64,10.5C 64.4983,7.18323 64.665,3.8499 64.5,0.5C 66.1667,0.5 67.8333,0.5 69.5,0.5C 69.5,4.5 69.5,8.5 69.5,12.5C 66.8594,15.4417 63.8594,15.9417 60.5,14C 58.783,1.33491 57.783,1.50158 57.5,14.5C 56.1667,14.5 54.8333,14.5 53.5,14.5C 53.3345,10.4862 53.5012,6.48617 54,2.5C 54.6979,1.30943 55.5313,0.309426 56.5,-0.5 Z"/></g>
<g><path style="opacity:0.832" fill="#0f0303" d="M 75.5,-0.5 C 76.5,-0.5 77.5,-0.5 78.5,-0.5C 81.3606,3.8878 83.6939,8.55447 85.5,13.5C 84.9032,14.1386 84.0698,14.472 83,14.5C 81,13.8333 79,13.1667 77,12.5C 75.3333,13.1667 73.6667,13.8333 72,14.5C 70.6244,14.3158 69.7911,13.6491 69.5,12.5C 71.4917,8.20472 73.4917,3.87139 75.5,-0.5 Z M 76.5,5.5 C 78.332,6.14047 78.6653,7.14047 77.5,8.5C 76.6143,7.67504 76.281,6.67504 76.5,5.5 Z"/></g>
<g><path style="opacity:0.911" fill="#9182f5" d="M 105.5,-0.5 C 106.5,-0.5 107.5,-0.5 108.5,-0.5C 111,3.48418 112.833,7.81751 114,12.5C 115.306,11.0878 116.14,9.42111 116.5,7.5C 115.522,5.22301 114.855,2.88968 114.5,0.5C 117.5,0.5 120.5,0.5 123.5,0.5C 123.5,1.83333 123.5,3.16667 123.5,4.5C 122.307,4.97041 121.64,5.97041 121.5,7.5C 121.64,9.02959 122.307,10.0296 123.5,10.5C 123.5,11.8333 123.5,13.1667 123.5,14.5C 117.856,14.9077 112.356,14.2411 107,12.5C 104.399,14.153 101.565,14.653 98.5,14C 100.376,8.83 102.709,3.99667 105.5,-0.5 Z M 106.5,5.5 C 107.776,6.3864 107.776,7.3864 106.5,8.5C 105.913,7.76662 105.913,6.76662 106.5,5.5 Z"/></g>
<g><path style="opacity:0.76" fill="#0f0303" d="M 25.5,0.5 C 27.1667,0.5 28.8333,0.5 30.5,0.5C 30.0845,4.37513 30.5845,8.0418 32,11.5C 33.4155,8.0418 33.9155,4.37513 33.5,0.5C 35.1667,0.5 36.8333,0.5 38.5,0.5C 38.6653,4.18174 38.4986,7.84841 38,11.5C 35.4038,15.6902 31.9038,16.5236 27.5,14C 26.8742,13.2496 26.3742,12.4162 26,11.5C 25.5014,7.84841 25.3347,4.18174 25.5,0.5 Z"/></g>
<g><path style="opacity:0.822" fill="#0f0303" d="M 39.5,0.5 C 43.1817,0.334703 46.8484,0.50137 50.5,1C 53.0594,3.92533 53.0594,6.92533 50.5,10C 52.0368,11.1096 52.7035,12.6096 52.5,14.5C 48.8184,15.2747 46.3184,13.9414 45,10.5C 44.51,11.7932 44.3433,13.1266 44.5,14.5C 42.8333,14.5 41.1667,14.5 39.5,14.5C 39.5,9.83333 39.5,5.16667 39.5,0.5 Z M 44.5,4.5 C 45.675,4.28099 46.675,4.61432 47.5,5.5C 45.9483,6.79789 44.9483,6.46455 44.5,4.5 Z"/></g>
<g><path style="opacity:0.912" fill="#0f0303" d="M 85.5,13.5 C 85.5,9.16667 85.5,4.83333 85.5,0.5C 86.8333,0.5 88.1667,0.5 89.5,0.5C 89.5,3.83333 89.5,7.16667 89.5,10.5C 91.1667,10.5 92.8333,10.5 94.5,10.5C 94.5,11.8333 94.5,13.1667 94.5,14.5C 91.3915,14.7359 88.3915,14.4025 85.5,13.5 Z"/></g>
</svg>
