<svg width="110" height="16" viewBox="0 0 110 16" fill="none" xmlns="http://www.w3.org/2000/svg">
<path d="M0.6 15V0.599999H3.32V12.46H9.52V15H0.6ZM17.0097 15.3C15.5697 15.3 14.3264 14.9867 13.2797 14.36C12.2397 13.7333 11.4364 12.8567 10.8697 11.73C10.3097 10.6033 10.0297 9.29333 10.0297 7.8C10.0297 6.30667 10.3097 4.99667 10.8697 3.87C11.4364 2.74333 12.2397 1.86667 13.2797 1.24C14.3264 0.613333 15.5697 0.3 17.0097 0.3C18.4497 0.3 19.6897 0.613333 20.7297 1.24C21.7764 1.86667 22.5797 2.74333 23.1397 3.87C23.7064 4.99667 23.9897 6.30667 23.9897 7.8C23.9897 9.29333 23.7064 10.6033 23.1397 11.73C22.5797 12.8567 21.7764 13.7333 20.7297 14.36C19.6897 14.9867 18.4497 15.3 17.0097 15.3ZM17.0097 12.74C17.923 12.7533 18.683 12.5567 19.2897 12.15C19.8964 11.7433 20.3497 11.1667 20.6497 10.42C20.9564 9.67333 21.1097 8.8 21.1097 7.8C21.1097 6.8 20.9564 5.93333 20.6497 5.2C20.3497 4.46667 19.8964 3.89667 19.2897 3.49C18.683 3.08333 17.923 2.87333 17.0097 2.86C16.0964 2.84667 15.3364 3.04333 14.7297 3.45C14.123 3.85667 13.6664 4.43333 13.3597 5.18C13.0597 5.92667 12.9097 6.8 12.9097 7.8C12.9097 8.8 13.0597 9.66667 13.3597 10.4C13.6664 11.1333 14.123 11.7033 14.7297 12.11C15.3364 12.5167 16.0964 12.7267 17.0097 12.74ZM31.9859 15.3C31.0793 15.3 30.2159 15.14 29.3959 14.82C28.5759 14.4933 27.8493 14.0133 27.2159 13.38C26.5893 12.7467 26.0926 11.9633 25.7259 11.03C25.3659 10.0967 25.1859 9.02 25.1859 7.8C25.1859 6.20667 25.4893 4.85333 26.0959 3.74C26.7093 2.62 27.5293 1.76667 28.5559 1.18C29.5893 0.593333 30.7326 0.3 31.9859 0.3C33.8393 0.3 35.2959 0.73 36.3559 1.59C37.4159 2.45 38.1259 3.66667 38.4859 5.24L35.7059 5.64C35.4459 4.8 35.0193 4.13 34.4259 3.63C33.8393 3.12333 33.0859 2.86667 32.1659 2.86C31.2526 2.84667 30.4926 3.04333 29.8859 3.45C29.2793 3.85667 28.8226 4.43333 28.5159 5.18C28.2159 5.92667 28.0659 6.8 28.0659 7.8C28.0659 8.8 28.2159 9.66667 28.5159 10.4C28.8226 11.1333 29.2793 11.7033 29.8859 12.11C30.4926 12.5167 31.2526 12.7267 32.1659 12.74C32.7859 12.7533 33.3459 12.6467 33.8459 12.42C34.3526 12.1933 34.7793 11.8367 35.1259 11.35C35.4726 10.8633 35.7193 10.24 35.8659 9.48H33.5859V7.38H38.7659C38.7793 7.46667 38.7893 7.62 38.7959 7.84C38.8026 8.06 38.8059 8.18667 38.8059 8.22C38.8059 9.6 38.5259 10.8233 37.9659 11.89C37.4059 12.9567 36.6159 13.7933 35.5959 14.4C34.5759 15 33.3726 15.3 31.9859 15.3ZM46.9902 15.3C45.5502 15.3 44.3068 14.9867 43.2602 14.36C42.2202 13.7333 41.4168 12.8567 40.8502 11.73C40.2902 10.6033 40.0102 9.29333 40.0102 7.8C40.0102 6.30667 40.2902 4.99667 40.8502 3.87C41.4168 2.74333 42.2202 1.86667 43.2602 1.24C44.3068 0.613333 45.5502 0.3 46.9902 0.3C48.4302 0.3 49.6702 0.613333 50.7102 1.24C51.7568 1.86667 52.5602 2.74333 53.1202 3.87C53.6868 4.99667 53.9702 6.30667 53.9702 7.8C53.9702 9.29333 53.6868 10.6033 53.1202 11.73C52.5602 12.8567 51.7568 13.7333 50.7102 14.36C49.6702 14.9867 48.4302 15.3 46.9902 15.3ZM46.9902 12.74C47.9035 12.7533 48.6635 12.5567 49.2702 12.15C49.8768 11.7433 50.3302 11.1667 50.6302 10.42C50.9368 9.67333 51.0902 8.8 51.0902 7.8C51.0902 6.8 50.9368 5.93333 50.6302 5.2C50.3302 4.46667 49.8768 3.89667 49.2702 3.49C48.6635 3.08333 47.9035 2.87333 46.9902 2.86C46.0768 2.84667 45.3168 3.04333 44.7102 3.45C44.1035 3.85667 43.6468 4.43333 43.3402 5.18C43.0402 5.92667 42.8902 6.8 42.8902 7.8C42.8902 8.8 43.0402 9.66667 43.3402 10.4C43.6468 11.1333 44.1035 11.7033 44.7102 12.11C45.3168 12.5167 46.0768 12.7267 46.9902 12.74ZM59.9703 15V0.599999H62.6903V6.52H69.1303V0.599999H71.8503V15H69.1303V9.06H62.6903V15H59.9703ZM74.6578 15V0.599999H84.0578V3.14H77.3778V6.22H82.8578V8.76H77.3778V12.46H84.0578V15H74.6578ZM86.4547 15V0.599999H92.5347C92.6747 0.599999 92.8614 0.606666 93.0947 0.619999C93.3347 0.626666 93.548 0.646666 93.7347 0.68C94.5947 0.813333 95.298 1.09667 95.8447 1.53C96.398 1.96333 96.8047 2.51 97.0647 3.17C97.3247 3.82333 97.4547 4.55333 97.4547 5.36C97.4547 6.56667 97.1547 7.6 96.5547 8.46C95.9547 9.31333 95.0147 9.84 93.7347 10.04L92.5347 10.12H89.1747V15H86.4547ZM94.5747 15L91.7347 9.14L94.5347 8.6L97.6547 15H94.5747ZM89.1747 7.58H92.4147C92.5547 7.58 92.708 7.57333 92.8747 7.56C93.0414 7.54667 93.1947 7.52 93.3347 7.48C93.7014 7.38 93.9847 7.21333 94.1847 6.98C94.3847 6.74 94.5214 6.47667 94.5947 6.19C94.6747 5.89667 94.7147 5.62 94.7147 5.36C94.7147 5.1 94.6747 4.82667 94.5947 4.54C94.5214 4.24667 94.3847 3.98333 94.1847 3.75C93.9847 3.51 93.7014 3.34 93.3347 3.24C93.1947 3.2 93.0414 3.17333 92.8747 3.16C92.708 3.14667 92.5547 3.14 92.4147 3.14H89.1747V7.58ZM99.8531 15V0.599999H109.253V3.14H102.573V6.22H108.053V8.76H102.573V12.46H109.253V15H99.8531Z" fill="#100303"/>
</svg>
